<?xml version="1.0" encoding="UTF-8" standalone="no"?>
<!-- Creator: CorelDRAW X5 -->

<svg
   xmlns:dc="http://purl.org/dc/elements/1.1/"
   xmlns:cc="http://creativecommons.org/ns#"
   xmlns:rdf="http://www.w3.org/1999/02/22-rdf-syntax-ns#"
   xmlns:svg="http://www.w3.org/2000/svg"
   xmlns="http://www.w3.org/2000/svg"
   xmlns:sodipodi="http://sodipodi.sourceforge.net/DTD/sodipodi-0.dtd"
   xmlns:inkscape="http://www.inkscape.org/namespaces/inkscape"
   xml:space="preserve"
   width="372.23239mm"
   height="122.91304mm"
   style="clip-rule:evenodd;fill-rule:evenodd;image-rendering:optimizeQuality;shape-rendering:geometricPrecision;text-rendering:geometricPrecision"
   viewBox="0 0 37223.241 12291.304"
   version="1.1"
   id="svg8557"
   sodipodi:docname="vertica_2_linesl.svg"
   inkscape:version="0.92.4 (5da689c313, 2019-01-14)"><metadata
   id="metadata8561"><rdf:RDF><cc:Work
       rdf:about=""><dc:format>image/svg+xml</dc:format><dc:type
         rdf:resource="http://purl.org/dc/dcmitype/StillImage" /><dc:title></dc:title></cc:Work></rdf:RDF></metadata><sodipodi:namedview
   pagecolor="#ffffff"
   bordercolor="#666666"
   borderopacity="1"
   objecttolerance="10"
   gridtolerance="10"
   guidetolerance="10"
   inkscape:pageopacity="0"
   inkscape:pageshadow="2"
   inkscape:window-width="1920"
   inkscape:window-height="1017"
   id="namedview8559"
   showgrid="false"
   inkscape:zoom="0.84100813"
   inkscape:cx="826.00728"
   inkscape:cy="185.47738"
   inkscape:window-x="1912"
   inkscape:window-y="-8"
   inkscape:window-maximized="1"
   inkscape:current-layer="Слой_x0020_1"
   fit-margin-top="-5"
   fit-margin-bottom="0"
   fit-margin-left="-25"
   fit-margin-right="-25"
   showguides="true"
   inkscape:guide-bbox="true"><sodipodi:guide
     position="18525.732,7166.9042"
     orientation="1,0"
     id="guide258"
     inkscape:locked="false" /></sodipodi:namedview>
 <defs
   id="defs4509">
  <style
   type="text/css"
   id="style4500">
   <![CDATA[
    .str2 {stroke:#FEFEFE;stroke-width:10}
    .str5 {stroke:#FEFEFE;stroke-width:10}
    .str3 {stroke:#FEFEFE;stroke-width:20}
    .str1 {stroke:#FEFEFE;stroke-width:25}
    .str0 {stroke:#FEFEFE;stroke-width:50}
    .str4 {stroke:#FEFEFE;stroke-width:7.62}
    .fil2 {fill:none}
    .fil3 {fill:#FEFEFE}
    .fil0 {fill:#FEFEFE;fill-rule:nonzero}
    .fil1 {fill:#FEFEFE;fill-rule:nonzero}
   ]]>
  </style>
  <filter
   id="blure"
   x="0"
   y="0"
   width="2"
   height="2">
    <feOffset
   result="offOut"
   in="SourceAlpha"
   dx="40"
   dy="40"
   id="feOffset4502" />
    <feGaussianBlur
   result="blurOut"
   in="offOut"
   stdDeviation="20"
   id="feGaussianBlur4504" />
    <feBlend
   in="SourceGraphic"
   in2="blurOut"
   mode="normal"
   id="feBlend4506" />
  </filter>
 <filter
   id="blure-6"
   x="0"
   y="0"
   width="2"
   height="2"
   inkscape:label="blure"><feOffset
     result="offOut"
     in="SourceAlpha"
     dx="20"
     dy="20"
     id="feOffset15901" /><feGaussianBlur
     result="blurOut"
     in="offOut"
     stdDeviation="20"
     id="feGaussianBlur15903" /><feBlend
     in="SourceGraphic"
     in2="blurOut"
     mode="normal"
     id="feBlend15905" /></filter><filter
   id="filter173"
   x="0"
   y="0"
   width="2"
   height="2"
   inkscape:label="blure"><feOffset
     result="offOut"
     in="SourceAlpha"
     dx="20"
     dy="20"
     id="feOffset167" /><feGaussianBlur
     result="blurOut"
     in="offOut"
     stdDeviation="20"
     id="feGaussianBlur169" /><feBlend
     in="SourceGraphic"
     in2="blurOut"
     mode="normal"
     id="feBlend171" /></filter><filter
   style="color-interpolation-filters:sRGB"
   inkscape:label="Drop Shadow"
   id="filter3884"><feOffset
     dx="5.5"
     dy="5.2896725440806165"
     result="offset"
     id="feOffset3880" /><feComposite
     in="SourceGraphic"
     in2="offset"
     operator="over"
     result="composite2"
     id="feComposite3882"
     dy="5.2999999999999998" /></filter><filter
   id="filter187"
   x="0"
   y="0"
   width="2"
   height="2"
   inkscape:label="blure"><feOffset
     result="offOut"
     in="SourceAlpha"
     dx="20"
     dy="20"
     id="feOffset181" /><feGaussianBlur
     result="blurOut"
     in="offOut"
     stdDeviation="20"
     id="feGaussianBlur183" /><feBlend
     in="SourceGraphic"
     in2="blurOut"
     mode="normal"
     id="feBlend185" /></filter><filter
   id="filter195"
   x="0"
   y="0"
   width="2"
   height="2"
   inkscape:label="blure"><feOffset
     result="offOut"
     in="SourceAlpha"
     dx="20"
     dy="20"
     id="feOffset189" /><feGaussianBlur
     result="blurOut"
     in="offOut"
     stdDeviation="20"
     id="feGaussianBlur191" /><feBlend
     in="SourceGraphic"
     in2="blurOut"
     mode="normal"
     id="feBlend193" /></filter><filter
   id="filter203"
   x="0"
   y="0"
   width="2"
   height="2"
   inkscape:label="blure"><feOffset
     result="offOut"
     in="SourceAlpha"
     dx="20"
     dy="20"
     id="feOffset197" /><feGaussianBlur
     result="blurOut"
     in="offOut"
     stdDeviation="20"
     id="feGaussianBlur199" /><feBlend
     in="SourceGraphic"
     in2="blurOut"
     mode="normal"
     id="feBlend201" /></filter><filter
   id="filter211"
   x="0"
   y="0"
   width="2"
   height="2"
   inkscape:label="blure"><feOffset
     result="offOut"
     in="SourceAlpha"
     dx="20"
     dy="20"
     id="feOffset205" /><feGaussianBlur
     result="blurOut"
     in="offOut"
     stdDeviation="20"
     id="feGaussianBlur207" /><feBlend
     in="SourceGraphic"
     in2="blurOut"
     mode="normal"
     id="feBlend209" /></filter><filter
   id="filter219"
   x="0"
   y="0"
   width="2"
   height="2"
   inkscape:label="blure"><feOffset
     result="offOut"
     in="SourceAlpha"
     dx="20"
     dy="20"
     id="feOffset213" /><feGaussianBlur
     result="blurOut"
     in="offOut"
     stdDeviation="20"
     id="feGaussianBlur215" /><feBlend
     in="SourceGraphic"
     in2="blurOut"
     mode="normal"
     id="feBlend217" /></filter><filter
   id="filter227"
   x="0"
   y="0"
   width="2"
   height="2"
   inkscape:label="blure"><feOffset
     result="offOut"
     in="SourceAlpha"
     dx="20"
     dy="20"
     id="feOffset221" /><feGaussianBlur
     result="blurOut"
     in="offOut"
     stdDeviation="20"
     id="feGaussianBlur223" /><feBlend
     in="SourceGraphic"
     in2="blurOut"
     mode="normal"
     id="feBlend225" /></filter><filter
   id="filter235"
   x="0"
   y="0"
   width="2"
   height="2"
   inkscape:label="blure"><feOffset
     result="offOut"
     in="SourceAlpha"
     dx="20"
     dy="20"
     id="feOffset229" /><feGaussianBlur
     result="blurOut"
     in="offOut"
     stdDeviation="20"
     id="feGaussianBlur231" /><feBlend
     in="SourceGraphic"
     in2="blurOut"
     mode="normal"
     id="feBlend233" /></filter><filter
   id="filter243"
   x="0"
   y="0"
   width="2"
   height="2"
   inkscape:label="blure"><feOffset
     result="offOut"
     in="SourceAlpha"
     dx="20"
     dy="20"
     id="feOffset237" /><feGaussianBlur
     result="blurOut"
     in="offOut"
     stdDeviation="20"
     id="feGaussianBlur239" /><feBlend
     in="SourceGraphic"
     in2="blurOut"
     mode="normal"
     id="feBlend241" /></filter><filter
   id="filter251"
   x="0"
   y="0"
   width="2"
   height="2"
   inkscape:label="blure"><feOffset
     result="offOut"
     in="SourceAlpha"
     dx="20"
     dy="20"
     id="feOffset245" /><feGaussianBlur
     result="blurOut"
     in="offOut"
     stdDeviation="20"
     id="feGaussianBlur247" /><feBlend
     in="SourceGraphic"
     in2="blurOut"
     mode="normal"
     id="feBlend249" /></filter><filter
   id="filter259"
   x="0"
   y="0"
   width="2"
   height="2"
   inkscape:label="blure"><feOffset
     result="offOut"
     in="SourceAlpha"
     dx="20"
     dy="20"
     id="feOffset253" /><feGaussianBlur
     result="blurOut"
     in="offOut"
     stdDeviation="20"
     id="feGaussianBlur255" /><feBlend
     in="SourceGraphic"
     in2="blurOut"
     mode="normal"
     id="feBlend257" /></filter><filter
   id="filter267"
   x="0"
   y="0"
   width="2"
   height="2"
   inkscape:label="blure"><feOffset
     result="offOut"
     in="SourceAlpha"
     dx="20"
     dy="20"
     id="feOffset261" /><feGaussianBlur
     result="blurOut"
     in="offOut"
     stdDeviation="20"
     id="feGaussianBlur263" /><feBlend
     in="SourceGraphic"
     in2="blurOut"
     mode="normal"
     id="feBlend265" /></filter><filter
   id="filter275"
   x="0"
   y="0"
   width="2"
   height="2"
   inkscape:label="blure"><feOffset
     result="offOut"
     in="SourceAlpha"
     dx="20"
     dy="20"
     id="feOffset269" /><feGaussianBlur
     result="blurOut"
     in="offOut"
     stdDeviation="20"
     id="feGaussianBlur271" /><feBlend
     in="SourceGraphic"
     in2="blurOut"
     mode="normal"
     id="feBlend273" /></filter><filter
   id="filter283"
   x="0"
   y="0"
   width="2"
   height="2"
   inkscape:label="blure"><feOffset
     result="offOut"
     in="SourceAlpha"
     dx="20"
     dy="20"
     id="feOffset277" /><feGaussianBlur
     result="blurOut"
     in="offOut"
     stdDeviation="20"
     id="feGaussianBlur279" /><feBlend
     in="SourceGraphic"
     in2="blurOut"
     mode="normal"
     id="feBlend281" /></filter><filter
   id="filter291"
   x="0"
   y="0"
   width="2"
   height="2"
   inkscape:label="blure"><feOffset
     result="offOut"
     in="SourceAlpha"
     dx="20"
     dy="20"
     id="feOffset285" /><feGaussianBlur
     result="blurOut"
     in="offOut"
     stdDeviation="20"
     id="feGaussianBlur287" /><feBlend
     in="SourceGraphic"
     in2="blurOut"
     mode="normal"
     id="feBlend289" /></filter><filter
   id="filter299"
   x="0"
   y="0"
   width="2"
   height="2"
   inkscape:label="blure"><feOffset
     result="offOut"
     in="SourceAlpha"
     dx="20"
     dy="20"
     id="feOffset293" /><feGaussianBlur
     result="blurOut"
     in="offOut"
     stdDeviation="20"
     id="feGaussianBlur295" /><feBlend
     in="SourceGraphic"
     in2="blurOut"
     mode="normal"
     id="feBlend297" /></filter><filter
   id="filter307"
   x="0"
   y="0"
   width="2"
   height="2"
   inkscape:label="blure"><feOffset
     result="offOut"
     in="SourceAlpha"
     dx="20"
     dy="20"
     id="feOffset301" /><feGaussianBlur
     result="blurOut"
     in="offOut"
     stdDeviation="20"
     id="feGaussianBlur303" /><feBlend
     in="SourceGraphic"
     in2="blurOut"
     mode="normal"
     id="feBlend305" /></filter><filter
   id="filter315"
   x="0"
   y="0"
   width="2"
   height="2"
   inkscape:label="blure"><feOffset
     result="offOut"
     in="SourceAlpha"
     dx="20"
     dy="20"
     id="feOffset309" /><feGaussianBlur
     result="blurOut"
     in="offOut"
     stdDeviation="20"
     id="feGaussianBlur311" /><feBlend
     in="SourceGraphic"
     in2="blurOut"
     mode="normal"
     id="feBlend313" /></filter><filter
   id="filter323"
   x="0"
   y="0"
   width="2"
   height="2"
   inkscape:label="blure"><feOffset
     result="offOut"
     in="SourceAlpha"
     dx="20"
     dy="20"
     id="feOffset317" /><feGaussianBlur
     result="blurOut"
     in="offOut"
     stdDeviation="20"
     id="feGaussianBlur319" /><feBlend
     in="SourceGraphic"
     in2="blurOut"
     mode="normal"
     id="feBlend321" /></filter><filter
   id="filter331"
   x="0"
   y="0"
   width="2"
   height="2"
   inkscape:label="blure"><feOffset
     result="offOut"
     in="SourceAlpha"
     dx="20"
     dy="20"
     id="feOffset325" /><feGaussianBlur
     result="blurOut"
     in="offOut"
     stdDeviation="20"
     id="feGaussianBlur327" /><feBlend
     in="SourceGraphic"
     in2="blurOut"
     mode="normal"
     id="feBlend329" /></filter><filter
   id="filter339"
   x="0"
   y="0"
   width="2"
   height="2"
   inkscape:label="blure"><feOffset
     result="offOut"
     in="SourceAlpha"
     dx="20"
     dy="20"
     id="feOffset333" /><feGaussianBlur
     result="blurOut"
     in="offOut"
     stdDeviation="20"
     id="feGaussianBlur335" /><feBlend
     in="SourceGraphic"
     in2="blurOut"
     mode="normal"
     id="feBlend337" /></filter><filter
   id="filter347"
   x="0"
   y="0"
   width="2"
   height="2"
   inkscape:label="blure"><feOffset
     result="offOut"
     in="SourceAlpha"
     dx="20"
     dy="20"
     id="feOffset341" /><feGaussianBlur
     result="blurOut"
     in="offOut"
     stdDeviation="20"
     id="feGaussianBlur343" /><feBlend
     in="SourceGraphic"
     in2="blurOut"
     mode="normal"
     id="feBlend345" /></filter><filter
   id="filter355"
   x="0"
   y="0"
   width="2"
   height="2"
   inkscape:label="blure"><feOffset
     result="offOut"
     in="SourceAlpha"
     dx="20"
     dy="20"
     id="feOffset349" /><feGaussianBlur
     result="blurOut"
     in="offOut"
     stdDeviation="20"
     id="feGaussianBlur351" /><feBlend
     in="SourceGraphic"
     in2="blurOut"
     mode="normal"
     id="feBlend353" /></filter><filter
   id="filter363"
   x="0"
   y="0"
   width="2"
   height="2"
   inkscape:label="blure"><feOffset
     result="offOut"
     in="SourceAlpha"
     dx="20"
     dy="20"
     id="feOffset357" /><feGaussianBlur
     result="blurOut"
     in="offOut"
     stdDeviation="20"
     id="feGaussianBlur359" /><feBlend
     in="SourceGraphic"
     in2="blurOut"
     mode="normal"
     id="feBlend361" /></filter><filter
   id="filter371"
   x="0"
   y="0"
   width="2"
   height="2"
   inkscape:label="blure"><feOffset
     result="offOut"
     in="SourceAlpha"
     dx="20"
     dy="20"
     id="feOffset365" /><feGaussianBlur
     result="blurOut"
     in="offOut"
     stdDeviation="20"
     id="feGaussianBlur367" /><feBlend
     in="SourceGraphic"
     in2="blurOut"
     mode="normal"
     id="feBlend369" /></filter><filter
   id="filter379"
   x="0"
   y="0"
   width="2"
   height="2"
   inkscape:label="blure"><feOffset
     result="offOut"
     in="SourceAlpha"
     dx="20"
     dy="20"
     id="feOffset373" /><feGaussianBlur
     result="blurOut"
     in="offOut"
     stdDeviation="20"
     id="feGaussianBlur375" /><feBlend
     in="SourceGraphic"
     in2="blurOut"
     mode="normal"
     id="feBlend377" /></filter><filter
   id="filter387"
   x="0"
   y="0"
   width="2"
   height="2"
   inkscape:label="blure"><feOffset
     result="offOut"
     in="SourceAlpha"
     dx="20"
     dy="20"
     id="feOffset381" /><feGaussianBlur
     result="blurOut"
     in="offOut"
     stdDeviation="20"
     id="feGaussianBlur383" /><feBlend
     in="SourceGraphic"
     in2="blurOut"
     mode="normal"
     id="feBlend385" /></filter><filter
   id="filter395"
   x="0"
   y="0"
   width="2"
   height="2"
   inkscape:label="blure"><feOffset
     result="offOut"
     in="SourceAlpha"
     dx="20"
     dy="20"
     id="feOffset389" /><feGaussianBlur
     result="blurOut"
     in="offOut"
     stdDeviation="20"
     id="feGaussianBlur391" /><feBlend
     in="SourceGraphic"
     in2="blurOut"
     mode="normal"
     id="feBlend393" /></filter><filter
   style="color-interpolation-filters:sRGB"
   inkscape:label="Drop Shadow"
   id="filter8901"><feOffset
     dx="9.4"
     dy="9.1"
     result="offset"
     id="feOffset8897" /><feComposite
     in="SourceGraphic"
     in2="offset"
     operator="over"
     result="composite2"
     id="feComposite8899" /></filter><filter
   style="color-interpolation-filters:sRGB"
   inkscape:label="Drop Shadow"
   id="filter228"><feOffset
     dx="8.1"
     dy="7.6"
     result="offset"
     id="feOffset223" /><feComposite
     in="SourceGraphic"
     in2="offset"
     operator="over"
     result="composite2"
     id="feComposite225" /></filter><filter
   id="blure-4"
   x="0"
   y="0"
   width="2"
   height="2"
   inkscape:label="blure"><feOffset
     result="offOut"
     in="SourceAlpha"
     dx="20"
     dy="20"
     id="feOffset15901-2" /><feGaussianBlur
     result="blurOut"
     in="offOut"
     stdDeviation="20"
     id="feGaussianBlur15903-8" /><feBlend
     in="SourceGraphic"
     in2="blurOut"
     mode="normal"
     id="feBlend15905-7" /></filter><filter
   style="color-interpolation-filters:sRGB"
   inkscape:label="Drop Shadow"
   id="filter1458"><feFlood
     flood-opacity="0.984314"
     flood-color="rgb(0,0,0)"
     result="flood"
     id="feFlood1448" /><feComposite
     in="flood"
     in2="SourceGraphic"
     operator="in"
     result="composite1"
     id="feComposite1450" /><feGaussianBlur
     in="composite1"
     stdDeviation="17.7083"
     result="blur"
     id="feGaussianBlur1452" /><feOffset
     dx="28.6"
     dy="30.2"
     result="offset"
     id="feOffset1454" /><feComposite
     in="SourceGraphic"
     in2="offset"
     operator="over"
     result="composite2"
     id="feComposite1456" /></filter></defs>
 <g
   id="Слой_x0020_1"
   style="filter:url(#filter228)"
   transform="translate(-3690.1084,-3175.5549)">
  <metadata
   id="CorelCorpID_0Corel-Layer" />
  
  <path
   class="fil1"
   d="m 5331.7118,12744.525 c -192,0 -344,-63 -456,-191 -112,-127 -167,-301 -167,-520 0,-221 55,-394 167,-521 111,-127 263,-191 455,-191 154,0 285,45 392,136 107,91 168,206 182,348 h -239 c -17,-81 -56,-147 -116,-195 -61,-49 -134,-73 -219,-73 -115,0 -206,44 -273,133 -67,89 -101,209 -101,362 0,153 34,273 101,363 67,89 158,133 274,133 86,0 159,-22 220,-67 61,-45 99,-105 115,-181 h 239 c -16,139 -77,251 -182,336 -105,85 -236,128 -392,128 z"
   id="path8519"
   inkscape:connector-curvature="0"
   style="fill:#fefefe;fill-rule:nonzero;filter:url(#blure)" />
  <path
   id="1"
   class="fil1"
   d="m 6381.7118,12722.525 c -49,0 -83,-4 -102,-13 v -207 c 26,5 52,8 80,8 46,0 86,-9 118,-26 32,-17 61,-46 85,-86 l -454,-1043 h 256 l 318,791 h 16 l 308,-791 h 254 l -415,968 c -29,69 -58,126 -85,171 -27,45 -59,86 -95,123 -36,37 -77,63 -123,80 -46,17 -100,25 -160,25 z"
   inkscape:connector-curvature="0"
   style="fill:#fefefe;fill-rule:nonzero;filter:url(#blure)" />
  <path
   id="12"
   class="fil1"
   d="m 7509.7118,11355.525 h 547 c 135,0 245,42 329,127 84,85 126,195 126,331 0,134 -43,243 -130,327 -87,84 -199,126 -336,126 h -294 v 444 h -242 z m 242,203 v 507 h 239 c 87,0 155,-22 202,-66 48,-44 72,-106 72,-186 0,-83 -24,-146 -71,-190 -47,-44 -115,-66 -202,-66 h -240 z"
   inkscape:connector-curvature="0"
   style="fill:#fefefe;fill-rule:nonzero;filter:url(#blure)" />
  <polygon
   id="123"
   class="fil1"
   points="12535,11489 13383,11489 13383,11700 12778,11700 12778,12845 12535,12845 "
   style="fill:#fefefe;fill-rule:nonzero;filter:url(#blure)"
   transform="translate(-3737.2882,-133.47458)" />
  <path
   id="1234"
   class="fil1"
   d="m 10096.712,12722.525 c -49,0 -83,-4 -102.0002,-13 v -207 c 26.0002,5 52.0002,8 80.0002,8 46,0 86,-9 118,-26 32,-17 61,-46 85,-86 l -454.0002,-1043 h 256.0002 l 318,791 h 16 l 308,-791 h 254 l -415,968 c -29,69 -58,126 -85,171 -27,45 -59,86 -95,123 -36,37 -77,63 -123,80 -46,17 -100,25 -160,25 z"
   inkscape:connector-curvature="0"
   style="fill:#fefefe;fill-rule:nonzero;filter:url(#blure)" />
  <polygon
   id="12345"
   class="fil1"
   points="15299,11699 14882,11699 14882,11489 15960,11489 15960,11699 15541,11699 15541,12845 15299,12845 "
   style="fill:#fefefe;fill-rule:nonzero;filter:url(#blure)"
   transform="translate(-3737.2882,-133.47458)" />
  <path
   id="123456"
   class="fil1"
   d="m 13065.712,12744.525 c -192,0 -344,-63 -456,-191 -112,-127 -167,-301 -167,-520 0,-221 55,-394 167,-521 111,-127 263,-191 455,-191 154,0 285,45 392,136 107,91 168,206 182,348 h -239 c -17,-81 -56,-147 -116,-195 -61,-49 -134,-73 -219,-73 -115,0 -206,44 -273,133 -67,89 -101,209 -101,362 0,153 34,273 101,363 67,89 158,133 274,133 86,0 159,-22 220,-67 61,-45 99,-105 115,-181 h 239 c -16,139 -77,251 -182,336 -105,85 -236,128 -392,128 z"
   inkscape:connector-curvature="0"
   style="fill:#fefefe;fill-rule:nonzero;filter:url(#blure)" />
  <polygon
   id="1234567"
   class="fil1"
   points="17924,12845 17682,12845 17682,11489 17924,11489 17924,12072 17966,12072 18474,11489 18753,11489 18171,12149 18796,12845 18497,12845 17966,12264 17924,12264 "
   style="fill:#fefefe;fill-rule:nonzero;filter:url(#blure)"
   transform="translate(-3737.2882,-133.47458)" />
  <polygon
   id="12345678"
   class="fil1"
   points="19922,11881 19267,12845 19033,12845 19033,11489 19274,11489 19274,12455 19290,12455 19944,11489 20178,11489 20178,12845 19938,12845 19938,11881 "
   style="fill:#fefefe;fill-rule:nonzero;filter:url(#blure)"
   transform="translate(-3737.2882,-133.47458)" />
  <path
   id="123456789"
   class="fil1"
   d="m 17017.712,10925.525 h 183 c 1,47 16,84 46,113 29,28 67,42 113,42 46,0 84,-14 114,-42 30,-28 46,-66 46,-113 h 183 c 0,90 -31,162 -94,215 -63,53 -146,80 -250,80 -104,0 -186,-27 -248,-80 -63,-53 -94,-125 -94,-215 z m 683,1785 v -964 h -16 l -655,964 h -235 v -1355 h 241 v 966 h 16 l 654,-966 h 235 v 1355 z"
   inkscape:connector-curvature="0"
   style="fill:#fefefe;fill-rule:nonzero;filter:url(#blure)" />
  <polygon
   id="12345678910"
   class="fil1"
   points="4741,13534 5589,13534 5589,13744 4984,13744 4984,14889 4741,14889 "
   style="fill:#fefefe;fill-rule:nonzero;filter:url(#blure)"
   transform="translate(14459.746,-2180.0848)" />
  <path
   id="1234567891011"
   class="fil1"
   d="m 20919.746,11319.915 c 197,0 352,64 467,192 115,128 172,301 172,519 0,218 -57,392 -172,520 -115,128 -271,192 -468,192 -199,0 -355,-64 -470,-191 -115,-128 -172,-301 -172,-520 0,-219 58,-392 173,-519 116,-128 272,-192 469,-192 z m 0,215 c -121,0 -217,45 -288,134 -71,89 -107,210 -107,362 0,152 35,273 106,363 70,89 167,134 289,134 120,0 215,-45 286,-135 70,-90 105,-211 105,-362 0,-152 -35,-272 -105,-362 -71,-89 -166,-134 -286,-134 z"
   inkscape:connector-curvature="0"
   style="fill:#fefefe;fill-rule:nonzero;filter:url(#blure)" />
  <path
   id="123456789101112"
   class="fil1"
   d="m 22431.746,12742.915 c -192,0 -344,-63 -456,-191 -112,-127 -167,-301 -167,-520 0,-221 55,-394 167,-521 111,-127 263,-191 455,-191 154,0 285,45 392,136 107,91 168,206 182,348 h -239 c -17,-81 -56,-147 -116,-195 -61,-49 -134,-73 -219,-73 -115,0 -206,44 -273,133 -67,89 -101,209 -101,362 0,153 34,273 101,363 67,89 158,133 274,133 86,0 159,-22 220,-67 61,-45 99,-105 115,-181 h 239 c -16,139 -77,251 -182,336 -105,85 -236,128 -392,128 z"
   inkscape:connector-curvature="0"
   style="fill:#fefefe;fill-rule:nonzero;filter:url(#blure)" />
  <path
   id="12345678910111213"
   class="fil1"
   d="m 23481.746,12719.915 c -49,0 -83,-4 -102,-13 v -207 c 26,5 52,8 80,8 46,0 86,-9 118,-26 32,-17 61,-46 85,-86 l -454,-1043 h 256 l 318,791 h 16 l 308,-791 h 254 l -415,968 c -29,69 -58,126 -85,171 -27,45 -59,86 -95,123 -36,37 -77,63 -123,80 -46,17 -100,25 -160,25 z"
   inkscape:connector-curvature="0"
   style="fill:#fefefe;fill-rule:nonzero;filter:url(#blure)" />
  <path
   id="1234567891011121314"
   class="fil1"
   d="m 24928.746,12160.915 c -5,80 -14,146 -27,196 -13,51 -34,93 -62,127 v 15 h 589 v -936 h -461 l -38,598 z m -238,548 v 268 h -221 v -477 h 97 c 46,-30 79,-72 99,-127 21,-55 33,-131 39,-227 l 48,-792 h 917 v 1146 h 169 v 477 h -220 v -268 z"
   inkscape:connector-curvature="0"
   style="fill:#fefefe;fill-rule:nonzero;filter:url(#blure)" />
  <path
   id="123456789101112131415"
   class="fil1"
   d="m 26955.746,12708.915 -114,-347 h -499 l -116,347 h -245 l 481,-1355 h 273 l 482,1355 h -260 z m -371,-1097 -186,559 h 386 l -184,-559 z"
   inkscape:connector-curvature="0"
   style="fill:#fefefe;fill-rule:nonzero;filter:url(#blure)" />
  <path
   id="12345678910111213141516"
   class="fil1"
   d="m 27467.746,11353.915 h 547 c 135,0 245,42 329,127 84,85 126,195 126,331 0,134 -43,243 -130,327 -87,84 -199,126 -336,126 h -294 v 444 h -242 z m 242,203 v 507 h 239 c 87,0 155,-22 202,-66 48,-44 72,-106 72,-186 0,-83 -24,-146 -71,-190 -47,-44 -115,-66 -202,-66 h -240 z"
   inkscape:connector-curvature="0"
   style="fill:#fefefe;fill-rule:nonzero;filter:url(#blure)" />
  <path
   id="1234567891011121314151617"
   class="fil1"
   d="m 29326.746,12742.915 c -192,0 -344,-63 -456,-191 -112,-127 -167,-301 -167,-520 0,-221 55,-394 167,-521 111,-127 263,-191 455,-191 154,0 285,45 392,136 107,91 168,206 182,348 h -239 c -17,-81 -56,-147 -116,-195 -61,-49 -134,-73 -219,-73 -115,0 -206,44 -273,133 -67,89 -101,209 -101,362 0,153 34,273 101,363 67,89 158,133 274,133 86,0 159,-22 220,-67 61,-45 99,-105 115,-181 h 239 c -16,139 -77,251 -182,336 -105,85 -236,128 -392,128 z"
   inkscape:connector-curvature="0"
   style="fill:#fefefe;fill-rule:nonzero;filter:url(#blure)" />
  <polygon
   id="123456789101112131415161718"
   class="fil1"
   points="16083,13743 15666,13743 15666,13534 16743,13534 16743,13743 16325,13743 16325,14889 16083,14889 "
   style="fill:#fefefe;fill-rule:nonzero;filter:url(#blure)"
   transform="translate(14459.746,-2180.0848)" />
  <path
   id="12345678910111213141516171819"
   class="fil1"
   d="m 32054.746,12708.915 h -579 v -1355 h 566 c 129,0 229,30 303,91 73,61 110,143 110,247 0,71 -23,135 -70,191 -46,56 -104,89 -172,99 v 17 c 91,9 165,43 222,103 57,60 86,134 86,222 0,119 -42,213 -125,282 -83,69 -197,103 -341,103 z m -337,-1163 v 378 h 234 c 86,0 151,-16 196,-48 45,-32 67,-79 67,-140 0,-60 -20,-106 -61,-139 -41,-33 -98,-50 -171,-50 h -265 z m 0,970 h 282 c 89,0 157,-18 204,-54 46,-36 70,-88 70,-157 0,-68 -24,-119 -72,-154 -48,-35 -118,-53 -211,-53 h -272 v 418 z"
   inkscape:connector-curvature="0"
   style="fill:#fefefe;fill-rule:nonzero;filter:url(#blure)" />
  <polygon
   id="1234567891011121314151617181920"
   class="fil1"
   points="18343,14889 18343,13534 19220,13534 19220,13743 18585,13743 18585,14103 19185,14103 19185,14300 18585,14300 18585,14680 19220,14680 19220,14889 "
   style="fill:#fefefe;fill-rule:nonzero;filter:url(#blure)"
   transform="translate(14459.746,-2180.0848)" />
  <polygon
   id="123456789101112131415161718192021"
   class="fil1"
   points="20441,14304 19782,14304 19782,14889 19539,14889 19539,13534 19782,13534 19782,14094 20441,14094 20441,13534 20682,13534 20682,14889 20441,14889 "
   style="fill:#fefefe;fill-rule:nonzero;filter:url(#blure)"
   transform="translate(14459.746,-2180.0848)" />
  <polygon
   id="12345678910111213141516171819202122"
   class="fil1"
   points="21937,14304 21278,14304 21278,14889 21036,14889 21036,13534 21278,13534 21278,14094 21937,14094 21937,13534 22178,13534 22178,14889 21937,14889 "
   style="fill:#fefefe;fill-rule:nonzero;filter:url(#blure)"
   transform="translate(14459.746,-2180.0848)" />
  <path
   id="1234567891011121314151617181920212223"
   class="fil1"
   d="m 38396.746,12708.915 h -242 v -1355 h 242 z m -1399,0 v -1355 h 242 v 470 h 288 c 138,0 250,41 337,123 87,82 130,188 130,320 0,132 -42,239 -127,321 -84,82 -194,122 -330,122 h -540 z m 242,-204 h 234 c 86,0 153,-21 201,-62 47,-41 71,-101 71,-178 0,-77 -24,-136 -71,-178 -48,-42 -115,-63 -202,-63 h -233 v 480 z"
   inkscape:connector-curvature="0"
   style="fill:#fefefe;fill-rule:nonzero;filter:url(#blure)" />
  <path
   id="123456789101112131415161718192021222324"
   class="fil1"
   d="m 38971.746,10923.915 h 183 c 1,47 16,84 46,113 29,28 67,42 113,42 46,0 84,-14 114,-42 30,-28 46,-66 46,-113 h 183 c 0,90 -31,162 -94,215 -63,53 -146,80 -250,80 -104,0 -186,-27 -248,-80 -63,-53 -94,-125 -94,-215 z m 683,1785 v -964 h -16 l -655,964 h -235 v -1355 h 241 v 966 h 16 l 654,-966 h 235 v 1355 z"
   inkscape:connector-curvature="0"
   style="fill:#fefefe;fill-rule:nonzero;filter:url(#blure)" />
  <path
   id="12345678910111213141516171819202122232425"
   class="fil1"
   d="m 14960.172,14811.642 c -49,0 -83,-4 -102,-13 v -207 c 26,5 52,8 80,8 46,0 86,-9 118,-26 32,-17 61,-46 85,-86 l -454,-1043 h 256 l 318,791 h 16 l 308,-791 h 254 l -415,968 c -29,69 -58,126 -85,171 -27,45 -59,86 -95,123 -36,37 -77,63 -123,80 -46,17 -100,25 -160,25 z"
   inkscape:connector-curvature="0"
   style="fill:#fefefe;fill-rule:nonzero;filter:url(#blure)" />
  <polygon
   id="1234567891011121314151617181920212223242526"
   class="fil1"
   points="9410,16348 9410,16933 9168,16933 9168,15578 9410,15578 9410,16139 10070,16139 10070,15578 10311,15578 10311,16933 10070,16933 10070,16348 "
   style="fill:#fefefe;fill-rule:nonzero;filter:url(#blure)"
   transform="translate(6920.1722,-2133.3574)" />
  <polygon
   id="123456789101112131415161718192021222324252627"
   class="fil1"
   points="10899,16933 10664,16933 10664,15578 10906,15578 10906,16543 10922,16543 11575,15578 11810,15578 11810,16933 11570,16933 11570,15970 11554,15970 "
   style="fill:#fefefe;fill-rule:nonzero;filter:url(#blure)"
   transform="translate(6920.1722,-2133.3574)" />
  <path
   id="12345678910111213141516171819202122232425262728"
   class="fil1"
   d="m 19664.172,14799.642 h -579 v -1355 h 566 c 129,0 229,30 303,91 73,61 110,143 110,247 0,71 -23,135 -70,191 -46,56 -104,89 -172,99 v 17 c 91,9 165,43 222,103 57,60 86,134 86,222 0,119 -42,213 -125,282 -83,69 -197,103 -341,103 z m -337,-1163 v 378 h 234 c 86,0 151,-16 196,-48 45,-32 67,-79 67,-140 0,-60 -20,-106 -61,-139 -41,-33 -98,-50 -171,-50 h -265 z m 0,970 h 282 c 89,0 157,-18 204,-54 46,-36 70,-88 70,-157 0,-68 -24,-119 -72,-154 -48,-35 -118,-53 -211,-53 h -272 v 418 z"
   inkscape:connector-curvature="0"
   style="fill:#fefefe;fill-rule:nonzero;filter:url(#blure)" />
  <polygon
   id="1234567891011121314151617181920212223242526272829"
   class="fil1"
   points="13491,15578 14369,15578 14369,15788 13734,15788 13734,16147 14334,16147 14334,16344 13734,16344 13734,16724 14369,16724 14369,16933 13491,16933 "
   style="fill:#fefefe;fill-rule:nonzero;filter:url(#blure)"
   transform="translate(6920.1722,-2133.3574)" />
  <path
   id="123456789101112131415161718192021222324252627282930"
   class="fil1"
   d="m 21608.172,13444.642 h 547 c 135,0 245,42 329,127 84,85 126,195 126,331 0,134 -43,243 -130,327 -87,84 -199,126 -336,126 h -294 v 444 h -242 z m 242,203 v 507 h 239 c 87,0 155,-22 202,-66 48,-44 72,-106 72,-186 0,-83 -24,-146 -71,-190 -47,-44 -115,-66 -202,-66 h -240 z"
   inkscape:connector-curvature="0"
   style="fill:#fefefe;fill-rule:nonzero;filter:url(#blure)" />
  <path
   id="12345678910111213141516171819202122232425262728293031"
   class="fil1"
   d="m 23467.172,14833.642 c -192,0 -344,-63 -456,-191 -112,-127 -167,-301 -167,-520 0,-221 55,-394 167,-521 111,-127 263,-191 455,-191 154,0 285,45 392,136 107,91 168,206 182,348 h -239 c -17,-81 -56,-147 -116,-195 -61,-49 -134,-73 -219,-73 -115,0 -206,44 -273,133 -67,89 -101,209 -101,362 0,153 34,273 101,363 67,89 158,133 274,133 86,0 159,-22 220,-67 61,-45 99,-105 115,-181 h 239 c -16,139 -77,251 -182,336 -105,85 -236,128 -392,128 z"
   inkscape:connector-curvature="0"
   style="fill:#fefefe;fill-rule:nonzero;filter:url(#blure)" />
  <polygon
   id="1234567891011121314151617181920212223242526272829303132"
   class="fil1"
   points="17660,16933 17426,16933 17426,15578 17667,15578 17667,16543 17683,16543 18337,15578 18571,15578 18571,16933 18331,16933 18331,15970 18315,15970 "
   style="fill:#fefefe;fill-rule:nonzero;filter:url(#blure)"
   transform="translate(6920.1722,-2133.3574)" />
  <polygon
   id="123456789101112131415161718192021222324252627282930313233"
   class="fil1"
   points="18846,15788 18846,15578 19923,15578 19923,15788 19505,15788 19505,16933 19263,16933 19263,15788 "
   style="fill:#fefefe;fill-rule:nonzero;filter:url(#blure)"
   transform="translate(6920.1722,-2133.3574)" />
  <polygon
   id="12345678910111213141516171819202122232425262728293031323334"
   class="fil1"
   points="20196,15578 21073,15578 21073,15788 20438,15788 20438,16147 21038,16147 21038,16344 20438,16344 20438,16724 21073,16724 21073,16933 20196,16933 "
   style="fill:#fefefe;fill-rule:nonzero;filter:url(#blure)"
   transform="translate(6920.1722,-2133.3574)" />
  <polygon
   id="1234567891011121314151617181920212223242526272829303132333435"
   class="fil1"
   points="21312,15788 21312,15578 22389,15578 22389,15788 21971,15788 21971,16933 21729,16933 21729,15788 "
   style="fill:#fefefe;fill-rule:nonzero;filter:url(#blure)"
   transform="translate(6920.1722,-2133.3574)" />
 </g>
<g
   transform="translate(14924.4,-6712.2987)"
   style="clip-rule:evenodd;display:inline;fill-rule:evenodd;filter:url(#filter8901);image-rendering:optimizeQuality;shape-rendering:geometricPrecision;text-rendering:geometricPrecision"
   id="g19914"><g
     id="g15913"><path
       class="fil0"
       d="m 7094,10500 h -139 v 0 l -4,-170 -13,-167 -21,-165 -29,-162 -37,-160 -45,-156 -52,-153 -60,-150 -67,-146 -74,-142 -80,-138 -87,-134 -93,-130 -99,-125 -105,-120 -110,-115 -116,-109 -121,-104 -126,-98 -131,-92 -135,-86 -139,-80 -144,-73 -147,-66 -151,-59 -155,-52 -158,-45 -161,-37 -164,-29 -166,-21 -169,-13 -171,-4 v -138 l 178,4 176,13 173,22 171,30 168,39 164,47 161,54 157,62 154,69 150,76 145,83 141,90 136,96 131,102 126,108 121,114 115,120 109,125 103,130 97,135 90,140 84,144 77,148 70,152 62,156 55,160 47,163 39,166 31,169 22,172 13,174 5,177 v 0 z m -3469,3441 v -138 0 l 171,-4 169,-13 166,-21 164,-29 161,-37 158,-45 155,-52 151,-59 147,-66 144,-73 139,-80 135,-86 131,-92 126,-98 121,-104 116,-109 110,-115 105,-120 99,-125 93,-130 87,-134 80,-138 74,-142 67,-146 60,-150 52,-153 45,-156 37,-160 29,-162 21,-165 13,-167 4,-170 h 139 l -5,177 -13,174 -22,172 -31,169 -39,166 -47,163 -55,160 -62,156 -70,152 -77,148 -84,144 -90,140 -97,135 -103,130 -109,125 -115,120 -121,114 -126,108 -131,102 -136,96 -141,90 -145,83 -150,76 -154,69 -157,62 -161,54 -164,47 -168,39 -171,30 -173,22 -176,13 -178,4 v 0 z M 156,10500 h 139 v 0 l 4,170 13,167 21,165 29,162 37,160 45,156 52,153 60,150 67,146 74,142 80,138 87,134 93,130 99,125 105,120 110,115 116,109 121,104 126,98 131,92 135,86 139,80 144,73 147,66 151,59 155,52 158,45 161,37 164,29 166,21 169,13 171,4 v 138 l -178,-4 -176,-13 -173,-22 -171,-30 -168,-39 -164,-47 -161,-54 -157,-62 -154,-69 -150,-76 -145,-83 -141,-90 -136,-96 -131,-102 -126,-108 -121,-114 -115,-120 -109,-125 -103,-130 -97,-135 -90,-140 -84,-144 -77,-148 -70,-152 -62,-156 -55,-160 -47,-163 -39,-166 -31,-169 -22,-172 -13,-174 -5,-177 v 0 z M 3625,7059 v 138 0 l -171,4 -169,13 -166,21 -164,29 -161,37 -158,45 -155,52 -151,59 -147,66 -144,73 -139,80 -135,86 -131,92 -126,98 -121,104 -116,109 -110,115 -105,120 -99,125 -93,130 -87,134 -80,138 -74,142 -67,146 -60,150 -52,153 -45,156 -37,160 -29,162 -21,165 -13,167 -4,170 H 156 l 5,-177 13,-174 22,-172 31,-169 39,-166 47,-163 55,-160 62,-156 70,-152 77,-148 84,-144 90,-140 97,-135 103,-130 109,-125 115,-120 121,-114 126,-108 131,-102 136,-96 141,-90 145,-83 150,-76 154,-69 157,-62 161,-54 164,-47 168,-39 171,-30 173,-22 176,-13 178,-4 v 0 z"
       id="path15911"
       inkscape:connector-curvature="0"
       style="display:inline;fill:#fefefe;fill-rule:nonzero;filter:url(#blure-6)" /></g><g
     id="g15917"><path
       class="fil1"
       d="m 6282,10500 h -117 v 0 l -3,-129 -10,-128 -16,-126 -22,-124 -28,-122 -34,-119 -40,-117 -46,-114 -51,-112 -56,-109 -61,-106 -66,-102 -71,-99 -76,-95 -80,-92 -84,-88 -88,-84 -92,-79 -96,-75 -100,-70 -103,-66 -106,-61 -110,-56 -112,-51 -115,-45 -118,-40 -120,-34 -123,-28 -125,-22 -127,-16 -129,-10 -130,-3 v -116 l 136,3 135,10 133,17 131,23 128,30 126,36 123,42 121,47 118,53 115,58 111,64 108,69 104,74 100,78 96,83 92,87 88,92 84,96 79,100 74,103 69,107 64,110 59,114 53,117 48,120 42,122 36,125 30,127 23,130 17,132 10,134 3,135 v 0 z m -2657,2635 v -116 0 l 130,-3 129,-10 127,-16 125,-22 123,-28 120,-34 118,-40 115,-45 112,-51 110,-56 106,-61 103,-66 100,-70 96,-75 92,-79 88,-84 84,-88 80,-92 76,-95 71,-99 66,-102 61,-106 56,-109 51,-112 46,-114 40,-117 34,-119 28,-122 22,-124 16,-126 10,-128 3,-129 h 117 l -3,135 -10,134 -17,132 -23,130 -30,127 -36,125 -42,122 -48,120 -53,117 -59,114 -64,110 -69,107 -74,103 -79,100 -84,96 -88,92 -92,87 -96,83 -100,78 -104,74 -108,69 -111,64 -115,58 -118,53 -121,47 -123,42 -126,36 -128,30 -131,23 -133,17 -135,10 -136,3 v 0 z M 968,10500 h 117 v 0 l 3,129 10,128 16,126 22,124 28,122 34,119 40,117 46,114 51,112 56,109 61,106 66,102 71,99 76,95 80,92 84,88 88,84 92,79 96,75 100,70 103,66 106,61 110,56 112,51 115,45 118,40 120,34 123,28 125,22 127,16 129,10 130,3 v 116 l -136,-3 -135,-10 -133,-17 -131,-23 -128,-30 -126,-36 -123,-42 -121,-47 -118,-53 -115,-58 -111,-64 -108,-69 -104,-74 -100,-78 -96,-83 -92,-87 -88,-92 -84,-96 -79,-100 -74,-103 -69,-107 -64,-110 -59,-114 -53,-117 -48,-120 -42,-122 -36,-125 -30,-127 -23,-130 -17,-132 -10,-134 -3,-135 v 0 z M 3625,7865 v 116 0 l -130,3 -129,10 -127,16 -125,22 -123,28 -120,34 -118,40 -115,45 -112,51 -110,56 -106,61 -103,66 -100,70 -96,75 -92,79 -88,84 -84,88 -80,92 -76,95 -71,99 -66,102 -61,106 -56,109 -51,112 -46,114 -40,117 -34,119 -28,122 -22,124 -16,126 -10,128 -3,129 H 970 l 3,-135 10,-134 17,-132 23,-130 30,-127 36,-125 42,-122 48,-120 53,-117 59,-114 64,-110 69,-107 74,-103 79,-100 84,-96 88,-92 92,-87 96,-83 100,-78 104,-74 108,-69 111,-64 115,-58 118,-53 121,-47 123,-42 126,-36 128,-30 131,-23 133,-17 135,-10 136,-3 v 0 z"
       id="path15915"
       inkscape:connector-curvature="0"
       style="fill:#fefefe;fill-rule:nonzero;filter:url(#blure-6)" /></g><g
     id="g3872"
     style="filter:url(#filter3884)"><path
       style="display:inline;fill:none;stroke:#fefefe;stroke-width:50;filter:url(#blure-6)"
       inkscape:connector-curvature="0"
       id="path15919"
       d="m 3193,9564 h 824 c 0,0 0,0 0,0 v 306 c 0,0 -1,0 0,0 l 401,842 -1587,-33 362,-809 c 0,0 0,0 0,0 v -306 c 0,0 0,0 0,0 z"
       class="fil2 str0" /><polygon
       style="display:inline;fill:none;stroke:#fefefe;stroke-width:25;filter:url(#blure-6)"
       id="polygon15921"
       points="3113,10706 3415,9875 3415,9564 3813,9564 3813,9875 4127,10702 "
       class="fil2 str1" /><polygon
       style="display:inline;fill:none;stroke:#fefefe;stroke-width:25;filter:url(#blure-6)"
       id="polygon15923"
       points="3191,9666 3191,9564 4018,9564 4018,9666 "
       class="fil2 str1" /><polygon
       style="display:inline;fill:none;stroke:#fefefe;stroke-width:25;filter:url(#blure-6)"
       id="polygon15925"
       points="4018,9766 3192,9766 3192,9711 4018,9711 "
       class="fil2 str1" /><polygon
       style="display:inline;fill:none;stroke:#fefefe;stroke-width:25;filter:url(#blure-6)"
       id="polygon15927"
       points="4018,9819 4018,9874 3192,9874 3192,9819 "
       class="fil2 str1" /><polygon
       style="display:inline;fill:none;stroke:#fefefe;stroke-width:50;filter:url(#blure-6)"
       id="polygon15929"
       points="4036,9469 4107,9564 3122,9564 3196,9469 3581,8211 3609,7999 3640,8211 "
       class="fil2 str0" /><line
       style="display:inline;fill:none;stroke:#fefefe;stroke-width:25;filter:url(#blure-6)"
       id="line15931"
       y2="9470"
       x2="4041"
       y1="9470"
       x1="3191"
       class="fil2 str1" /><path
       style="display:inline;fill:#fefefe;filter:url(#blure-6)"
       inkscape:connector-curvature="0"
       id="path15933"
       d="m 1908,13089 129,74 -12,21 -21,-12 c -19,33 -27,58 -24,77 3,18 12,32 27,41 10,6 22,8 34,7 13,-1 26,-8 41,-20 15,-12 30,-32 45,-58 8,-13 15,-27 20,-40 6,-13 11,-27 16,-41 5,-14 10,-31 16,-50 9,-33 19,-58 30,-77 2,-3 4,-6 6,-8 2,-2 4,-4 5,-6 2,-2 3,-3 5,-5 2,-2 3,-3 4,-3 1,0 1,-1 2,-2 -2,-4 -5,-7 -10,-10 -9,-5 -20,-7 -33,-6 -13,1 -27,5 -41,12 -14,7 -28,17 -41,29 -13,12 -24,26 -33,40 -3,5 -5,9 -6,12 l 21,12 -12,21 -129,-74 12,-21 20,12 c 13,-20 30,-36 50,-48 21,-12 43,-20 67,-23 24,-4 48,-4 71,0 24,4 45,11 63,22 14,8 25,17 33,27 l -4,7 c -7,13 -12,26 -15,39 -2,13 -2,35 3,66 3,21 4,38 4,51 0,14 0,25 -2,36 -2,10 -4,19 -8,27 -3,8 -7,16 -12,25 -14,23 -30,42 -49,56 -19,14 -39,24 -61,29 -22,5 -44,6 -66,2 -22,-4 -43,-11 -64,-23 -25,-14 -44,-30 -57,-47 -13,-17 -21,-35 -25,-52 -3,-17 -4,-33 -2,-47 2,-14 5,-28 10,-40 l -20,-12 12,-21 z m -73,-378 23,19 c 13,-13 23,-24 30,-32 l 16,-20 c 12,-15 23,-32 32,-49 l 9,-11 44,30 c -10,12 -21,25 -34,39 -13,14 -27,27 -41,41 -7,7 -16,15 -27,26 l 40,32 -165,345 18,15 -15,19 -119,-96 15,-19 30,24 136,-278 c -30,24 -56,45 -81,63 -24,19 -46,35 -67,50 -20,15 -34,25 -42,30 -8,5 -15,11 -24,16 -20,13 -39,22 -56,26 -17,4 -33,0 -49,-13 -6,-5 -12,-12 -19,-21 -7,-9 -10,-16 -9,-22 4,-3 9,-7 15,-10 3,-1 6,-3 10,-6 4,-3 8,-7 13,-12 5,-5 12,-14 21,-25 l 6,5 c 0,1 1,3 2,5 1,2 2,4 3,6 3,6 4,11 6,13 2,3 4,5 7,8 11,8 25,10 43,5 18,-5 38,-15 59,-29 21,-14 41,-29 60,-44 19,-15 35,-28 49,-40 35,-28 58,-46 68,-54 l -22,-18 z m -340,-97 94,-87 -32,-34 18,-16 125,132 -18,16 -32,-34 -153,141 c -22,20 -43,39 -64,57 -27,10 -55,12 -84,4 -29,-8 -53,-22 -74,-44 -21,-22 -35,-44 -42,-67 -8,-23 -9,-44 -4,-64 5,-20 15,-37 31,-51 23,-21 48,-32 76,-33 28,-1 51,8 70,28 6,7 10,12 12,17 2,5 5,14 8,27 2,6 3,10 4,13 l 64,-6 z m -25,23 -59,5 c -1,-4 -2,-8 -3,-13 -2,-5 -3,-8 -4,-9 -6,-7 -16,-9 -28,-8 -13,1 -29,11 -49,30 -20,19 -34,36 -41,51 -7,15 -4,30 8,43 9,10 20,14 32,12 12,-2 24,-7 36,-16 12,-9 26,-20 41,-34 l 10,-9 56,-52 z m -339,-62 -132,-167 c -11,-14 -25,-29 -41,-45 -1,-1 -3,-3 -4,-4 -2,-2 -3,-3 -5,-5 -2,-1 -3,-3 -4,-3 -1,-1 -2,-2 -3,-3 -4,-5 -5,-10 -4,-15 1,-5 5,-9 10,-13 2,-2 5,-3 8,-4 3,-1 7,-2 11,-3 4,-1 9,-3 13,-4 13,-4 26,-9 37,-16 12,-8 20,-12 26,-14 5,-2 10,0 14,5 4,5 4,9 3,12 -2,4 -5,9 -11,16 -20,26 -29,47 -29,62 0,16 6,31 17,45 l 9,11 20,25 277,-214 -29,-37 19,-15 113,143 -19,15 -29,-37 -277,214 29,37 -19,15 z m -5,-703 14,26 c 17,-7 30,-14 40,-19 l 22,-12 c 17,-10 33,-21 48,-34 l 12,-7 29,44 c -14,8 -29,15 -46,23 -17,8 -35,15 -53,22 -9,4 -21,8 -35,14 l 25,45 -284,259 11,20 -21,12 -74,-133 21,-12 19,34 231,-208 c -36,11 -69,20 -99,29 -29,8 -56,16 -81,22 -25,6 -41,11 -50,13 -9,2 -18,4 -28,6 -24,4 -44,6 -61,3 -17,-2 -31,-12 -41,-30 -4,-7 -7,-16 -10,-26 -3,-11 -3,-19 0,-24 5,-2 11,-3 18,-4 3,0 7,-1 11,-2 4,-1 10,-3 17,-7 7,-3 16,-8 29,-15 l 4,7 c 0,2 0,3 0,5 0,2 0,4 0,6 0,7 0,11 1,15 0,3 1,7 3,10 7,12 19,19 38,20 19,2 41,0 66,-5 25,-5 49,-11 72,-18 23,-7 43,-13 60,-19 43,-13 71,-21 83,-24 l -14,-25 21,-12 z m -159,-282 -328,125 9,23 5,12 c 4,10 8,17 14,22 5,5 15,8 27,9 13,1 32,0 59,-3 12,-1 20,-2 24,-2 4,0 7,3 9,9 2,6 2,11 -2,15 -4,3 -9,7 -17,10 -15,6 -29,15 -43,27 -2,2 -6,6 -14,13 -7,7 -12,12 -15,14 -3,2 -5,4 -8,5 -5,2 -10,2 -16,-1 -6,-2 -10,-7 -13,-15 -1,-2 -2,-10 -5,-25 -3,-15 -8,-31 -15,-49 -1,-3 -3,-6 -4,-9 -1,-3 -2,-6 -4,-10 l -61,-157 c -2,-4 -3,-7 -4,-10 -1,-3 -2,-6 -3,-9 -6,-15 -11,-26 -16,-35 -5,-8 -9,-15 -12,-20 -4,-5 -6,-10 -7,-13 -3,-7 -3,-14 0,-20 3,-6 7,-9 12,-11 4,-1 11,-2 23,-1 12,0 21,1 26,1 19,0 36,-3 50,-8 16,-6 26,-4 30,6 2,4 1,8 0,11 -2,3 -5,7 -10,11 -5,4 -13,10 -25,17 -24,17 -37,31 -41,43 -3,12 -2,27 6,45 l 9,23 328,-125 -17,-44 22,-9 65,169 -22,9 -17,-44 z m -407,-566 34,144 -23,5 -6,-24 c -37,9 -62,20 -73,35 -12,15 -15,30 -12,47 3,11 9,21 18,29 9,8 24,14 43,16 19,2 44,0 73,-7 15,-3 30,-8 43,-12 14,-5 27,-10 41,-16 14,-6 30,-14 48,-23 30,-15 56,-26 78,-31 3,-1 7,-1 10,-1 3,0 6,0 8,0 2,0 5,0 7,0 3,0 4,0 5,0 1,0 2,0 3,0 1,-4 1,-8 0,-14 -2,-10 -8,-19 -18,-28 -10,-9 -23,-16 -37,-22 -15,-6 -31,-9 -50,-10 -18,-1 -35,0 -52,4 -6,1 -10,3 -13,4 l 6,24 -23,5 -34,-144 23,-5 5,23 c 23,-4 46,-3 69,4 23,7 44,18 63,32 19,15 35,32 48,52 13,20 22,40 27,61 4,16 5,30 3,42 l -8,2 c -14,3 -27,9 -39,16 -11,7 -27,23 -47,47 -13,16 -25,29 -35,38 -10,10 -19,17 -28,23 -9,6 -17,10 -25,13 -8,3 -17,6 -27,8 -27,6 -51,7 -75,3 -23,-4 -44,-12 -63,-24 -19,-12 -34,-28 -47,-47 -13,-19 -21,-39 -27,-62 -6,-28 -8,-52 -4,-73 4,-21 11,-39 21,-53 10,-14 21,-25 33,-33 12,-8 24,-15 36,-20 l -5,-23 23,-5 z m 13,-211 -1,-21 -16,-7 c -7,-3 -14,-6 -21,-8 0,0 -9,-4 -25,-10 -33,-13 -56,-23 -70,-30 -14,-7 -27,-16 -40,-28 -12,-12 -19,-27 -21,-45 -1,-18 1,-35 7,-50 19,6 30,9 33,9 3,0 9,1 18,1 10,0 19,0 27,0 l 1,11 c -2,6 -4,13 -6,19 -4,9 -6,19 -5,31 1,11 5,20 14,28 8,8 20,16 35,23 15,7 40,18 74,33 5,-31 13,-58 24,-81 11,-23 29,-43 54,-59 25,-16 60,-27 103,-30 l -2,-34 24,-2 11,153 -24,2 -2,-22 c -14,0 -25,1 -31,1 -21,1 -40,4 -55,9 -15,4 -29,11 -41,20 -12,9 -22,20 -29,35 -7,14 -12,31 -15,52 l 178,-12 -2,-35 24,-2 12,169 -24,2 -3,-47 -350,24 3,47 -24,2 -12,-173 24,-2 3,39 152,-11 z m -46,-570 142,138 98,9 3,-39 24,2 -15,173 -24,-2 4,-47 -350,-30 -4,47 -24,-2 15,-173 24,2 -3,39 214,19 -143,-138 -60,-5 -3,39 -24,-2 15,-173 24,2 -4,47 350,30 4,-47 24,2 -15,173 -24,-2 3,-39 -251,-22 z m 82,-476 119,158 96,24 10,-38 23,6 -42,168 -23,-6 11,-45 -341,-84 -11,46 -23,-6 41,-162 23,6 -8,32 209,52 -119,-158 -59,-15 -8,32 -23,-6 41,-162 23,6 -11,45 341,84 11,-46 23,6 -42,168 -23,-6 9,-38 -245,-61 z m -224,-60 15,-22 c 14,10 26,21 36,33 10,12 17,25 21,38 4,13 5,26 2,38 -5,20 -18,35 -39,45 -21,10 -44,13 -70,11 l -1,-23 c 13,-2 25,-6 37,-12 11,-6 18,-16 22,-29 4,-17 4,-33 -1,-46 -5,-14 -12,-24 -21,-32 z m 246,-398 91,-193 c 8,-16 15,-36 22,-57 1,-2 1,-3 2,-6 1,-2 1,-5 2,-7 0,-2 1,-4 1,-5 0,-1 1,-2 2,-4 3,-6 7,-9 12,-10 5,-1 10,0 16,3 2,1 5,3 7,5 2,2 5,5 8,9 3,3 6,7 10,10 10,10 20,19 32,25 12,7 20,12 24,16 4,4 5,9 2,15 -2,5 -6,8 -10,8 -4,0 -11,0 -20,-2 -32,-6 -55,-5 -69,3 -14,8 -25,19 -32,36 l -6,13 -14,29 318,147 20,-43 22,10 -77,164 -22,-10 20,-43 -318,-147 -20,43 -22,-10 z m 255,-501 c 2,-3 5,-4 9,-5 4,-1 11,-2 21,-4 7,-1 12,-3 16,-3 3,-1 7,-2 9,-2 3,-1 9,-2 17,-5 9,-2 18,-5 29,-8 20,-6 39,-9 55,-12 17,-2 34,-1 52,2 18,3 36,11 54,23 18,11 32,24 42,37 10,14 18,28 24,44 6,15 11,35 16,57 5,23 9,44 12,63 3,14 5,25 5,31 1,6 0,12 -3,15 -2,3 -7,7 -14,9 -7,3 -25,8 -52,17 -27,8 -45,13 -55,15 -9,3 -22,4 -39,5 -17,1 -33,-1 -50,-5 -17,-4 -34,-12 -51,-22 -55,-36 -87,-100 -96,-194 -1,-15 -3,-25 -4,-32 -3,-12 -2,-21 3,-29 z m 42,72 c -6,12 -8,25 -6,38 2,13 6,26 13,37 7,12 16,20 26,27 10,6 23,11 37,12 15,2 32,2 51,-1 19,-2 42,-6 69,-12 24,-6 42,-9 51,-9 10,-1 19,1 29,6 3,-17 3,-36 -2,-56 -5,-20 -13,-35 -26,-46 l -16,-10 c -7,-3 -15,-5 -24,-6 -10,-1 -20,-1 -32,0 -11,1 -24,3 -38,5 -14,2 -26,4 -37,6 -22,3 -38,6 -49,8 -11,2 -20,3 -26,3 -7,0 -13,-1 -20,-3 z m 450,-450 -98,112 -18,-16 16,-18 c -29,-25 -53,-38 -71,-38 -19,-1 -34,5 -45,19 -8,9 -12,19 -13,32 -1,12 3,27 12,44 9,17 26,35 48,55 12,10 24,19 35,27 12,8 24,16 37,23 13,7 29,16 46,25 30,15 54,30 71,44 3,2 5,5 7,7 2,2 3,4 5,6 1,2 2,4 4,6 1,2 2,4 3,4 0,1 1,1 2,3 4,-1 8,-4 11,-8 7,-8 11,-18 12,-31 1,-13 0,-27 -4,-43 -4,-15 -11,-30 -21,-46 -10,-15 -21,-28 -33,-39 -5,-4 -8,-7 -11,-8 l -16,18 -18,-16 98,-112 18,16 -15,17 c 17,16 30,36 38,58 8,22 11,45 10,69 -1,24 -6,47 -14,69 -8,22 -19,42 -34,58 -11,12 -22,21 -33,27 l -6,-5 c -11,-10 -23,-17 -36,-22 -13,-5 -35,-8 -66,-10 -21,-1 -38,-3 -52,-6 -14,-2 -25,-5 -35,-9 -10,-4 -18,-8 -25,-13 -7,-5 -15,-10 -22,-17 -21,-18 -36,-37 -47,-58 -11,-21 -16,-43 -17,-65 -1,-22 3,-44 10,-65 8,-21 19,-40 35,-58 19,-21 38,-37 58,-46 20,-9 38,-14 56,-14 17,0 33,2 47,7 14,5 26,10 37,17 l 15,-17 18,16 z m 385,-4 -23,19 c 10,15 19,27 26,35 l 16,19 c 13,15 27,28 43,40 l 9,11 -38,37 c -10,-12 -21,-26 -32,-41 -11,-15 -22,-31 -32,-47 -5,-8 -12,-19 -20,-31 l -40,33 -310,-227 -18,15 -15,-18 117,-98 15,18 -30,25 250,185 c -18,-33 -33,-63 -47,-90 -14,-27 -26,-52 -37,-74 -11,-23 -18,-38 -22,-47 -4,-8 -8,-17 -11,-26 -9,-22 -14,-42 -15,-59 -1,-17 6,-32 22,-46 6,-5 14,-10 24,-15 10,-5 18,-6 23,-5 3,4 5,10 7,16 1,3 2,7 4,11 2,4 5,9 10,15 4,6 11,14 20,25 l -6,5 c -2,0 -3,0 -5,1 -2,0 -4,1 -6,2 -6,1 -11,2 -14,3 -3,1 -6,3 -9,5 -10,9 -15,22 -13,41 2,19 8,40 17,63 10,23 20,46 32,66 11,21 22,39 30,55 21,40 34,65 40,76 l 22,-18 15,18 z m 147,-596 13,20 -27,17 c 15,19 34,42 58,69 25,28 52,57 82,88 30,31 55,55 76,73 21,18 34,25 39,22 2,-1 4,-4 5,-7 2,-4 6,-8 13,-12 5,-3 9,-3 14,-1 5,2 8,5 11,9 2,3 4,11 6,24 2,13 7,27 12,42 7,18 12,30 14,36 2,6 -1,11 -7,15 -5,3 -10,3 -15,1 -4,-3 -9,-7 -14,-13 -16,-18 -30,-29 -45,-33 -14,-4 -27,-4 -39,0 -11,4 -24,11 -39,20 l -49,31 c -24,15 -40,27 -50,37 -10,10 -15,21 -16,31 -1,11 1,25 7,42 4,13 7,23 8,29 1,6 -1,11 -7,15 -5,3 -10,3 -14,0 -4,-3 -9,-8 -14,-14 -7,-9 -16,-18 -25,-28 -9,-9 -18,-16 -26,-21 -9,-6 -14,-11 -16,-15 -3,-5 -4,-10 -1,-14 3,-5 6,-8 11,-11 3,-2 7,-4 11,-5 4,-1 6,-3 8,-4 4,-2 6,-5 7,-9 1,-4 1,-7 0,-11 -1,-4 -3,-8 -5,-14 -3,-6 -5,-10 -6,-13 -15,-32 -25,-65 -31,-99 -6,-34 -9,-69 -10,-104 0,-18 -1,-34 -4,-48 -2,-14 -7,-27 -14,-38 -9,-14 -23,-16 -42,-4 l -26,16 -13,-20 159,-99 z m 72,394 84,-52 c -6,-6 -11,-11 -15,-14 -4,-4 -10,-9 -17,-16 -23,-21 -39,-36 -48,-46 -10,-9 -20,-20 -31,-31 -11,-11 -20,-21 -29,-30 -9,-9 -17,-18 -25,-26 -6,-6 -13,-14 -21,-23 -2,20 -2,41 -1,64 2,23 5,46 9,68 5,23 10,43 16,60 6,17 12,31 17,39 8,13 16,20 25,20 8,0 20,-4 36,-14 z m 185,-520 -39,20 -11,-21 158,-80 11,21 -40,20 256,270 35,-18 11,21 -152,77 -11,-21 39,-20 -105,-111 c 7,26 11,54 12,85 1,31 -3,58 -11,83 -8,25 -21,42 -40,51 -16,8 -32,10 -48,5 -16,-5 -30,-17 -40,-37 -7,-14 -12,-30 -16,-47 -3,-18 -5,-37 -6,-58 -1,-21 0,-42 2,-63 1,-21 4,-44 6,-69 2,-14 3,-27 5,-39 1,-12 2,-22 1,-31 -1,-9 -3,-17 -7,-25 -2,-5 -5,-9 -9,-14 z m 112,118 -64,-69 c -3,22 -6,40 -7,54 -1,14 -2,30 -3,47 -1,24 -1,45 1,62 1,17 5,34 12,51 l 7,13 c 11,15 25,18 42,10 13,-6 21,-20 25,-41 4,-21 4,-43 1,-67 -3,-24 -7,-44 -13,-60 z m 378,-76 40,121 45,-14 7,23 -174,56 -7,-23 45,-14 -64,-197 c -9,-28 -17,-55 -25,-82 2,-29 13,-55 32,-77 19,-22 43,-38 72,-48 29,-9 55,-12 79,-10 24,3 44,11 60,23 16,13 27,29 34,50 10,30 9,57 -2,83 -11,26 -29,43 -56,51 -9,3 -16,4 -21,4 -5,0 -15,-2 -28,-4 -6,-1 -11,-1 -14,-2 l -22,60 z m -11,-32 20,-55 c 4,1 8,2 13,3 5,1 8,1 10,0 9,-3 15,-10 19,-22 4,-12 2,-31 -6,-57 -9,-26 -18,-46 -30,-58 -11,-13 -26,-16 -43,-11 -13,4 -21,12 -25,24 -3,12 -4,25 -1,39 3,15 8,32 14,51 l 4,13 24,72 z m 597,-211 -147,26 -4,-23 24,-4 c -7,-37 -17,-62 -31,-74 -14,-12 -30,-17 -47,-14 -12,2 -22,8 -31,16 -9,9 -15,23 -18,42 -3,19 -3,43 3,73 3,15 6,30 10,43 4,14 9,28 14,41 5,14 12,30 20,48 14,31 23,57 27,79 1,3 1,7 1,10 0,3 0,6 0,8 0,2 0,4 -1,7 0,3 0,4 -1,5 0,1 0,2 0,3 4,2 8,2 14,1 10,-2 20,-7 29,-17 9,-9 17,-21 24,-36 6,-14 11,-31 13,-49 2,-18 2,-35 -1,-51 -1,-6 -2,-10 -3,-13 l -24,4 -4,-23 147,-26 4,23 -23,4 c 3,23 1,46 -8,68 -8,22 -20,42 -36,60 -16,18 -34,33 -55,45 -21,12 -41,20 -63,24 -16,3 -30,3 -42,0 l -1,-8 c -3,-14 -7,-28 -14,-39 -7,-12 -22,-28 -45,-49 -15,-14 -27,-26 -37,-37 -9,-10 -16,-20 -21,-29 -5,-9 -9,-17 -12,-26 -3,-8 -5,-17 -6,-27 -5,-27 -4,-51 1,-74 5,-23 14,-43 28,-61 13,-18 30,-32 49,-44 19,-11 41,-19 63,-23 28,-5 53,-5 74,0 21,5 39,13 52,24 13,11 24,22 32,35 8,12 14,24 18,37 l 23,-4 4,23 z"
       class="fil3" /><path
       style="display:inline;fill:#fefefe;filter:url(#blure-6)"
       inkscape:connector-curvature="0"
       id="path15935"
       d="m 3481,7724 -6,-348 h -24 -13 c -11,0 -19,2 -26,5 -6,3 -12,11 -18,22 -6,12 -11,30 -17,56 -3,12 -5,20 -7,23 -2,4 -5,5 -11,6 -7,0 -11,-2 -13,-7 -2,-4 -3,-11 -4,-19 -1,-16 -5,-32 -11,-49 -1,-2 -4,-8 -8,-17 -4,-9 -7,-15 -8,-19 -1,-3 -2,-6 -2,-9 0,-5 2,-10 6,-15 4,-5 10,-7 18,-7 2,0 10,1 25,4 15,2 32,4 51,3 4,0 7,0 9,-1 3,0 6,0 11,0 l 169,-3 c 4,0 8,0 11,0 3,0 6,0 9,0 16,0 29,-1 38,-3 9,-1 17,-3 24,-5 6,-2 11,-2 15,-2 8,0 14,2 19,6 4,4 7,9 7,15 0,4 -2,11 -7,22 -5,11 -8,19 -9,24 -6,18 -10,34 -10,50 0,17 -5,26 -16,26 -4,0 -8,-1 -10,-4 -2,-3 -4,-7 -6,-13 -2,-6 -5,-16 -8,-29 -8,-28 -17,-45 -27,-53 -10,-7 -25,-11 -45,-10 h -24 l 6,348 47,-1 v 24 l -183,3 v -24 l 47,-1 z m 331,0 22,-178 c 4,-33 10,-61 17,-85 7,-23 18,-43 31,-58 13,-16 30,-27 51,-33 21,-7 47,-8 78,-4 24,3 44,10 61,20 17,11 29,23 37,38 8,15 10,30 8,46 -2,19 -9,34 -19,45 -10,11 -22,18 -36,21 -14,4 -28,4 -43,3 -16,-2 -33,-10 -49,-24 l -28,28 c 18,18 36,31 53,41 18,9 38,15 60,18 l 5,1 c 12,1 20,4 26,7 6,3 9,8 10,13 1,5 1,13 0,23 l -11,89 c 0,3 -1,6 -1,8 0,2 -1,4 -1,7 -1,8 -3,14 -5,17 -2,3 -6,6 -12,8 -7,2 -17,2 -30,0 l -272,-33 3,-24 47,6 z m 88,11 69,8 c 9,1 16,0 20,-5 4,-4 7,-14 9,-30 l 8,-64 c 1,-8 0,-15 -2,-19 -2,-4 -8,-10 -19,-17 -11,-8 -19,-14 -24,-17 -5,-4 -9,-7 -14,-11 -4,-4 -9,-8 -13,-13 -4,-5 -8,-10 -13,-16 l -23,183 z m 25,-203 38,-40 c 11,8 19,12 25,13 5,1 10,0 16,-3 6,-3 11,-8 16,-16 5,-8 9,-20 11,-34 2,-20 0,-35 -7,-45 -7,-10 -17,-16 -30,-18 -14,-2 -25,2 -34,12 -9,10 -15,22 -19,38 -4,15 -8,34 -11,56 -1,7 -1,13 -2,18 -1,6 -1,12 -2,20 z m 442,110 20,5 c 0,-11 -3,-21 -8,-28 -5,-7 -11,-12 -17,-14 -11,-3 -23,-4 -36,-3 -13,1 -24,5 -33,12 -3,25 -4,47 -3,66 1,19 1,35 0,48 -1,13 -3,28 -8,45 -3,10 -7,19 -13,27 4,4 11,7 19,9 22,6 41,6 58,2 17,-5 30,-12 41,-23 11,-11 19,-22 26,-34 l -28,-7 6,-22 144,38 -6,22 -21,-5 c -16,16 -35,30 -56,42 -21,11 -43,19 -66,23 -23,4 -45,3 -67,-3 -38,-10 -67,-21 -87,-34 3,-7 4,-11 5,-14 4,-13 4,-26 1,-39 -3,-13 -8,-27 -15,-42 -12,-26 -20,-46 -25,-62 -5,-15 -7,-29 -7,-40 0,-11 2,-25 6,-39 12,-43 30,-75 57,-96 26,-21 55,-33 87,-37 31,-3 62,-1 92,7 19,5 37,12 55,22 18,10 34,23 48,41 14,18 23,38 26,63 l 26,7 -6,23 -137,-36 6,-23 17,5 c 1,-17 -2,-33 -10,-49 -8,-16 -23,-27 -46,-33 -18,-5 -35,-3 -50,6 -15,9 -28,21 -38,38 -10,17 -18,35 -23,55 -3,10 -5,19 -6,28 17,-9 34,-14 51,-15 17,-1 33,0 50,5 22,6 41,17 57,33 16,16 25,35 26,57 l 23,6 -6,23 -137,-36 6,-23 z m 406,53 -103,229 36,16 -10,22 -160,-71 10,-22 43,19 143,-318 -43,-19 10,-22 160,71 -10,22 -36,-16 -25,55 52,191 87,-195 -36,-16 10,-22 160,70 -10,22 -43,-19 -143,318 43,19 -10,22 -160,-70 10,-22 36,16 40,-89 -53,-190 z m 425,212 -134,212 33,21 -13,20 -148,-92 13,-20 40,25 186,-295 -40,-25 13,-20 148,92 -13,20 -33,-21 -32,51 25,196 114,-181 -33,-21 13,-20 148,92 -13,20 -40,-25 -186,295 40,25 -13,20 -148,-92 13,-20 33,21 52,-83 -25,-196 z m 521,230 -16,17 -35,-32 -96,102 c 2,21 9,43 22,67 13,24 25,41 36,51 3,3 9,8 18,15 6,6 11,11 13,16 2,5 3,10 1,15 -2,6 -6,12 -13,20 l -76,81 c -12,13 -21,19 -28,19 -7,0 -15,-5 -25,-13 l -207,-192 16,-17 35,32 239,-255 -35,-32 16,-17 134,124 z m -106,410 239,-255 -35,-32 16,-17 134,124 -16,17 -35,-32 -239,255 35,32 -16,17 -134,-124 16,-17 z m -184,-170 38,35 c 6,5 11,10 16,13 5,3 11,5 17,4 6,0 13,-4 20,-11 l 46,-49 c 2,-2 3,-4 4,-4 0,-1 1,-1 1,-2 0,0 2,-2 4,-5 6,-7 9,-13 10,-17 0,-4 -3,-13 -10,-25 -13,-22 -21,-45 -24,-68 l -122,130 z m 675,347 -199,-1 -77,61 25,30 -19,15 -110,-135 19,-15 30,36 273,-219 -30,-36 19,-15 106,130 -19,15 -21,-26 -167,134 199,1 47,-38 -21,-26 19,-15 106,130 -19,15 -30,-36 -273,219 30,36 -19,15 -110,-135 19,-15 25,30 196,-157 z m 183,-141 9,25 c -16,5 -32,8 -48,8 -16,0 -30,-2 -44,-6 -13,-5 -24,-11 -32,-21 -13,-16 -17,-35 -12,-58 5,-22 16,-43 34,-62 l 19,13 c -7,11 -11,23 -13,36 -2,13 2,24 10,35 11,14 24,23 38,27 14,4 27,5 39,2 z m -100,828 -13,-27 c -17,6 -31,12 -41,16 l -23,11 c -17,8 -34,19 -50,31 l -13,6 -26,-46 c 14,-7 30,-13 48,-20 18,-7 36,-13 55,-19 9,-3 21,-7 35,-12 l -22,-47 301,-239 -10,-21 22,-10 65,138 -22,10 -17,-35 -245,191 c 37,-8 70,-16 100,-22 30,-6 57,-12 82,-16 25,-5 42,-8 51,-9 9,-2 19,-3 28,-4 24,-3 45,-3 62,1 17,3 30,14 39,33 3,7 6,16 8,27 2,11 1,19 -2,24 -5,1 -11,2 -18,3 -3,0 -7,0 -11,1 -4,1 -10,3 -17,5 -7,3 -17,7 -30,13 l -4,-8 c 0,-2 0,-3 0,-5 0,-2 0,-4 0,-6 0,-7 1,-11 1,-15 0,-3 -1,-7 -3,-10 -6,-12 -18,-20 -37,-23 -19,-3 -41,-3 -66,0 -25,3 -50,8 -73,13 -23,6 -44,10 -62,15 -44,10 -72,16 -85,19 l 12,26 -22,10 z m 373,206 -242,69 11,38 -23,7 -48,-167 23,-7 13,45 337,-96 -13,-45 23,-7 48,167 -23,7 -11,-38 -58,17 -114,162 207,-59 -11,-37 23,-7 48,167 -23,7 -13,-45 -337,96 13,45 -23,7 -48,-167 23,-7 11,37 95,-27 113,-162 z m 126,589 -170,-103 -97,14 6,39 -24,3 -24,-172 24,-3 7,46 348,-48 -7,-46 24,-3 24,172 -24,3 -6,-39 -213,30 170,102 60,-8 -5,-39 24,-3 24,172 -24,3 -7,-46 -348,48 7,46 -24,3 -24,-172 24,-3 5,39 z m -236,258 180,3 c 34,1 63,3 87,8 24,5 44,13 62,24 17,11 30,27 39,47 9,20 13,45 12,76 0,24 -5,45 -14,63 -9,18 -20,31 -34,40 -14,9 -29,13 -45,13 -19,0 -35,-5 -47,-14 -12,-9 -20,-20 -25,-33 -5,-13 -7,-27 -7,-42 0,-16 7,-33 19,-51 l -31,-25 c -16,20 -28,38 -35,57 -7,18 -11,39 -12,61 v 5 c 0,12 -2,21 -5,26 -3,6 -7,9 -12,11 -5,2 -13,2 -24,2 l -91,-2 c -3,0 -6,0 -8,0 -2,0 -5,0 -7,-1 -8,-1 -14,-1 -18,-3 -4,-1 -7,-5 -9,-11 -2,-6 -3,-16 -3,-30 l 5,-272 h 24 l -1,47 z m -2,88 -1,69 c 0,9 2,16 7,19 5,4 15,6 31,6 l 65,1 c 9,0 15,-1 19,-4 4,-2 9,-9 15,-20 7,-12 12,-21 15,-26 3,-5 6,-10 10,-15 4,-5 7,-10 12,-14 4,-5 9,-9 15,-14 l -186,-3 z m 206,4 44,33 c -7,11 -10,20 -10,26 0,5 2,10 5,15 3,5 9,10 18,14 9,4 20,7 35,7 20,0 35,-4 45,-12 10,-8 14,-19 15,-32 0,-14 -5,-25 -16,-32 -11,-7 -24,-12 -40,-15 -16,-3 -35,-4 -57,-5 -7,0 -13,0 -19,0 -6,0 -12,0 -20,0 z m -67,448 -4,21 c 12,-1 21,-5 28,-11 7,-6 11,-12 12,-18 2,-11 2,-23 0,-36 -2,-12 -7,-23 -14,-32 -26,-1 -48,0 -66,3 -19,3 -35,4 -48,4 -13,0 -28,-1 -46,-4 -11,-2 -20,-5 -29,-11 -4,4 -6,11 -8,20 -4,22 -3,41 3,57 6,16 15,29 26,38 11,10 24,17 36,22 l 5,-28 23,4 -26,146 -23,-4 3,-21 c -18,-15 -33,-32 -47,-52 -13,-20 -23,-41 -29,-63 -6,-22 -7,-44 -3,-66 7,-38 16,-68 27,-89 7,2 12,3 14,4 13,2 26,2 39,-2 12,-4 26,-10 41,-19 25,-14 45,-24 60,-30 15,-6 28,-10 40,-10 12,-1 25,0 40,2 44,8 78,24 101,48 23,24 38,52 44,82 6,31 7,61 1,92 -3,19 -9,38 -17,57 -8,19 -21,36 -37,51 -16,16 -37,26 -61,31 l -5,27 -24,-4 25,-138 24,4 -3,17 c 17,0 33,-5 48,-14 15,-9 25,-25 29,-48 3,-18 0,-35 -10,-49 -10,-14 -24,-25 -41,-34 -17,-9 -37,-15 -57,-18 -10,-2 -20,-3 -29,-3 10,17 17,33 19,49 3,16 3,33 0,50 -4,22 -13,42 -28,59 -15,17 -33,27 -55,31 l -4,23 -24,-4 25,-138 24,4 z m -127,356 -124,-33 -12,45 -23,-6 47,-175 23,6 -12,45 201,54 c 29,8 56,16 83,24 23,18 39,40 48,68 9,28 9,57 1,86 -8,29 -19,52 -35,71 -15,18 -33,31 -52,37 -20,6 -40,7 -60,1 -30,-8 -53,-24 -69,-47 -16,-23 -20,-48 -13,-74 2,-9 5,-15 8,-20 3,-4 9,-11 18,-21 4,-5 7,-8 9,-10 l -39,-51 z m 33,9 35,47 c -3,3 -6,6 -9,9 -3,4 -5,7 -5,8 -2,9 0,18 8,28 8,10 25,19 51,26 27,7 49,10 65,7 17,-2 28,-12 33,-30 4,-13 1,-24 -6,-34 -8,-9 -19,-16 -33,-22 -14,-6 -31,-11 -51,-16 l -13,-4 -74,-20 z m -164,610 61,-135 22,10 -10,22 c 35,15 61,21 80,16 18,-5 31,-15 38,-31 5,-11 6,-22 3,-34 -3,-12 -11,-25 -25,-39 -14,-13 -35,-26 -63,-39 -14,-6 -28,-12 -42,-16 -14,-4 -28,-8 -43,-11 -15,-3 -32,-7 -52,-11 -34,-6 -61,-13 -81,-22 -3,-1 -6,-3 -8,-5 -3,-2 -5,-3 -6,-5 -2,-2 -3,-3 -5,-4 -2,-2 -3,-3 -4,-3 -1,0 -1,-1 -3,-2 -3,2 -6,6 -9,11 -4,9 -5,20 -2,33 3,13 8,26 17,40 8,13 20,26 33,38 14,12 28,21 43,28 6,2 10,4 13,5 l 10,-22 22,10 -61,135 -22,-10 10,-21 c -21,-11 -39,-25 -53,-44 -14,-19 -24,-40 -30,-63 -6,-23 -9,-47 -7,-70 1,-24 6,-45 15,-65 7,-15 14,-26 23,-35 l 7,3 c 14,6 27,9 41,10 14,1 36,-2 66,-10 20,-5 37,-8 51,-10 14,-2 26,-2 36,-1 10,1 20,2 28,5 8,2 17,6 26,10 25,11 45,25 62,42 16,17 28,36 36,57 7,21 10,43 9,65 -1,22 -7,44 -16,65 -12,26 -26,46 -42,61 -16,15 -32,25 -49,30 -17,5 -32,7 -47,7 -15,0 -28,-2 -41,-6 l -10,21 -22,-10 z m -167,293 -64,-187 -83,-52 -21,33 -20,-13 93,-147 20,13 -25,40 298,184 25,-40 20,13 -93,147 -20,-13 21,-33 -182,-113 64,187 51,32 21,-33 20,13 -93,147 -20,-13 25,-40 -298,-184 -25,40 -20,-13 93,-147 20,13 -21,33 z m -421,127 269,224 16,-19 8,-10 c 7,-8 11,-16 13,-23 2,-7 0,-16 -5,-28 -5,-12 -16,-28 -31,-50 -7,-10 -11,-17 -13,-20 -2,-4 -1,-8 3,-12 4,-5 9,-7 14,-5 5,1 10,5 17,10 13,10 28,18 45,24 3,1 9,3 18,5 10,3 16,5 20,6 3,1 6,3 8,5 4,3 6,8 7,14 1,6 -2,12 -7,18 -1,2 -8,7 -19,16 -12,9 -24,22 -36,36 -2,3 -4,5 -6,7 -2,2 -4,5 -7,8 l -109,129 c -3,3 -5,6 -7,8 -2,2 -4,4 -6,7 -10,12 -18,22 -23,30 -5,8 -9,15 -12,21 -3,6 -6,10 -8,13 -5,6 -11,9 -17,10 -6,0 -11,-1 -16,-5 -3,-2 -7,-9 -12,-20 -5,-11 -9,-18 -12,-23 -9,-16 -20,-30 -31,-40 -13,-11 -17,-21 -10,-29 3,-3 6,-5 10,-5 4,0 8,1 14,4 6,3 15,7 27,13 26,12 46,17 57,15 12,-3 24,-12 37,-27 l 16,-19 -269,-224 -30,36 -18,-15 117,-139 18,15 -30,36 z m -233,460 -16,13 c 10,6 19,10 28,10 9,0 16,-2 21,-6 9,-7 17,-16 23,-27 6,-11 10,-22 10,-33 -19,-17 -36,-31 -52,-41 -16,-11 -29,-20 -39,-28 -10,-8 -21,-19 -32,-33 -7,-8 -12,-17 -15,-27 -6,1 -12,4 -19,10 -18,14 -30,29 -36,45 -6,16 -8,31 -6,46 2,15 6,28 13,41 l 22,-18 15,18 -116,93 -15,-18 16,-14 c -4,-23 -4,-46 -1,-69 3,-24 10,-46 20,-66 10,-20 24,-38 42,-52 30,-24 57,-41 79,-50 4,6 7,10 8,12 9,11 19,18 31,24 12,5 27,9 44,13 28,6 49,11 65,16 15,5 28,11 37,18 9,7 19,16 28,28 28,34 43,68 45,102 2,33 -5,64 -21,91 -16,27 -36,51 -60,70 -15,12 -32,23 -51,31 -19,9 -39,14 -62,15 -23,1 -45,-4 -66,-17 l -21,17 -15,-18 110,-88 15,18 -14,11 c 13,11 28,18 46,21 18,3 36,-3 54,-18 15,-12 23,-26 25,-43 2,-17 -1,-35 -9,-52 -8,-18 -18,-35 -31,-51 -7,-8 -13,-15 -20,-21 -3,19 -9,36 -18,50 -9,14 -20,27 -33,37 -18,14 -38,23 -60,26 -23,3 -43,-1 -62,-12 l -18,15 -15,-19 110,-88 15,19 z m -423,91 175,301 21,-12 11,-6 c 9,-5 16,-11 20,-17 4,-6 5,-15 5,-28 -1,-13 -5,-32 -12,-57 -3,-12 -5,-20 -5,-24 0,-4 2,-7 7,-10 6,-3 11,-4 15,0 4,3 8,8 13,15 9,14 20,26 34,38 2,2 7,5 15,11 8,6 14,10 16,12 3,2 5,5 6,7 3,5 3,10 2,16 -2,6 -6,11 -13,15 -2,1 -10,4 -24,9 -14,5 -30,12 -47,22 -3,2 -6,4 -8,5 -2,2 -6,3 -9,5 l -147,84 c -4,2 -7,4 -9,5 -2,1 -5,3 -8,4 -14,8 -24,15 -32,21 -8,6 -14,11 -18,15 -5,4 -9,7 -12,9 -7,4 -13,5 -19,3 -6,-2 -10,-5 -13,-10 -2,-3 -3,-11 -5,-23 -1,-12 -3,-20 -4,-25 -3,-18 -8,-34 -16,-48 -9,-15 -8,-25 1,-31 4,-2 8,-3 11,-1 3,1 7,4 12,9 5,5 12,12 21,21 21,21 37,32 49,33 12,2 27,-3 44,-12 l 21,-12 -175,-301 -41,23 -12,-21 158,-91 12,21 -41,23 z"
       class="fil3" /><path
       style="display:inline;fill:#fefefe;filter:url(#blure-6)"
       inkscape:connector-curvature="0"
       id="path15937"
       d="m 2978,13263 35,108 c 5,-7 12,-15 21,-26 5,-6 10,-12 15,-19 13,-16 24,-28 34,-36 9,-8 21,-14 34,-16 13,-3 29,-2 47,3 10,2 21,7 33,14 12,7 18,12 17,16 -1,3 -3,6 -7,10 -2,3 -5,6 -8,9 -2,3 -4,5 -6,8 -2,3 -5,6 -7,10 -3,4 -4,8 -6,13 l -1,4 c -1,5 -3,10 -5,14 l -16,-4 c -9,-11 -16,-18 -21,-21 -5,-4 -11,-6 -19,-8 -8,-2 -14,-2 -20,-2 -6,1 -11,3 -15,6 -5,3 -10,7 -16,14 -6,6 -11,12 -15,16 -4,5 -6,8 -7,8 -1,1 -2,2 -4,4 -7,7 -12,13 -15,18 l 72,246 47,12 -6,23 -197,-49 6,-23 52,13 -49,-166 -47,53 c -8,8 -16,20 -26,34 -10,14 -15,25 -17,31 -2,9 5,15 22,19 6,2 11,3 15,3 l -6,23 -134,-33 6,-23 c 16,4 31,4 43,-1 13,-4 24,-11 33,-21 10,-10 23,-25 39,-45 6,-7 10,-12 12,-14 l 50,-60 -56,-188 -36,-9 6,-23 173,43 -6,23 -41,-10 z m 416,414 -37,-291 c -17,22 -31,42 -42,61 -11,18 -20,37 -26,55 -7,19 -11,38 -12,59 -1,11 -1,27 -1,48 0,22 1,37 0,46 l -2,28 c -1,3 -2,6 -3,7 -1,2 -3,3 -6,4 -4,1 -8,2 -13,1 -3,0 -10,-2 -20,-4 -3,-1 -8,-1 -15,-2 -8,-1 -14,-1 -18,-1 -6,0 -10,0 -12,0 -7,-1 -12,-4 -14,-10 -3,-6 -3,-17 -2,-33 2,-21 6,-41 12,-58 6,-18 14,-34 23,-49 9,-15 19,-28 30,-41 11,-13 25,-28 41,-47 23,-25 40,-46 51,-63 11,-17 17,-33 19,-50 0,-3 0,-8 0,-14 l -42,-4 2,-24 162,14 -2,24 -32,-3 43,337 92,-325 -25,-2 2,-24 153,13 -2,24 -37,-3 45,353 39,3 -2,24 -152,-13 2,-24 25,2 -38,-301 -82,291 30,3 -2,24 -166,-14 2,-24 30,3 z m 476,-354 -43,5 -3,-24 176,-21 3,24 -44,5 148,341 39,-5 3,23 -170,21 -3,-23 43,-5 -60,-140 c -2,27 -8,55 -18,84 -10,29 -23,54 -39,74 -16,20 -34,32 -55,35 -18,2 -33,-2 -47,-12 -14,-10 -22,-26 -25,-48 -2,-16 -1,-32 2,-50 3,-18 8,-37 14,-56 7,-20 14,-39 23,-59 9,-19 19,-40 30,-63 7,-13 13,-25 18,-35 5,-11 9,-20 11,-29 2,-8 3,-17 2,-26 -1,-5 -2,-11 -4,-17 z m 64,149 -36,-86 c -11,19 -19,36 -25,48 -6,13 -12,27 -19,43 -9,23 -16,42 -21,58 -5,16 -7,33 -6,52 l 2,15 c 5,18 17,26 36,23 14,-2 27,-12 37,-30 11,-18 19,-39 24,-63 5,-23 8,-44 8,-61 z m 299,-242 c 3,-1 6,0 10,2 4,2 10,6 18,11 6,4 11,6 14,8 3,2 6,3 8,5 3,2 8,4 16,8 8,4 17,9 26,14 19,10 35,19 48,29 14,10 26,22 36,36 11,15 19,32 24,53 5,20 7,39 5,56 -2,17 -6,33 -12,48 -6,15 -16,33 -28,52 -12,20 -24,38 -35,55 -8,13 -14,22 -18,27 -4,5 -8,8 -13,9 -4,1 -10,0 -17,-3 -7,-3 -24,-11 -49,-23 -25,-13 -42,-21 -50,-26 -9,-4 -19,-12 -32,-22 -13,-11 -24,-23 -34,-37 -10,-15 -17,-31 -22,-51 -16,-63 5,-132 63,-207 9,-12 15,-20 19,-26 6,-10 13,-17 22,-19 z m -18,81 c -13,5 -23,13 -31,24 -8,11 -13,23 -16,36 -3,13 -2,26 0,37 3,12 9,23 19,34 10,11 22,23 38,34 16,11 35,24 59,38 22,12 36,22 44,28 8,6 13,14 17,24 14,-10 27,-24 37,-42 10,-18 15,-35 13,-51 l -5,-19 c -3,-7 -7,-14 -14,-21 -7,-7 -14,-14 -23,-21 -9,-7 -19,-15 -31,-22 -12,-8 -22,-15 -31,-21 -18,-12 -32,-22 -41,-28 -9,-6 -16,-12 -21,-16 -5,-4 -9,-9 -13,-15 z"
       class="fil3" /><path
       style="display:inline;fill:#fefefe;filter:url(#blure-6)"
       inkscape:connector-curvature="0"
       id="path15939"
       d="m 2528,13268 c 35,0 64,29 64,64 0,35 -29,64 -64,64 -35,0 -64,-29 -64,-64 0,-35 29,-64 64,-64 z"
       class="fil3" /><path
       style="display:inline;fill:#fefefe;filter:url(#blure-6)"
       inkscape:connector-curvature="0"
       id="path15941"
       d="m 4747,13268 c 35,0 64,29 64,64 0,35 -29,64 -64,64 -35,0 -64,-29 -64,-64 0,-35 29,-64 64,-64 z"
       class="fil3" /><path
       style="display:inline;fill:#fefefe;filter:url(#blure-6)"
       inkscape:connector-curvature="0"
       id="path15943"
       d="m 5767,11994 -173,217 c 5,-18 8,-38 10,-58 -26,97 -95,167 -177,169 -88,3 -165,-74 -191,-181 l 1,-2 c 35,68 101,115 177,115 113,0 204,-103 204,-229 0,-10 -1,-21 -2,-31 z m -2542,558 v 0 c 16,-11 38,-8 50,7 l 226,304 h 76 4 l 1,-1 -197,-266 c -12,-16 -8,-38 8,-50 v 0 c 16,-12 38,-8 50,8 l 42,57 49,-67 c 10,-13 29,-16 43,-7 v 0 c 14,10 17,29 7,42 l -56,77 c -1,2 -3,4 -5,5 l 105,141 105,-141 c -2,-2 -3,-3 -5,-5 l -56,-77 c -10,-13 -7,-32 7,-42 v 0 c 14,-10 33,-7 43,7 l 49,67 42,-57 c 12,-16 34,-19 50,-8 v 0 c 16,12 19,34 8,50 l -198,266 1,1 h 4 76 l 226,-304 c 12,-16 34,-19 50,-7 v 0 c 16,11 19,34 8,49 l -231,311 c -5,7 -12,11 -19,13 v 1 h -4 c -3,1 -7,1 -10,0 h -94 -98 -94 c -3,1 -7,1 -10,0 h -4 v -1 c -8,-2 -14,-6 -19,-13 l -231,-311 c -12,-16 -8,-38 8,-49 z m 2224,-174 c -447,460 -1117,713 -1823,715 -707,2 -1374,-240 -1824,-705 22,10 47,15 72,15 101,0 186,-86 199,-197 -1,-11 -2,-21 -2,-32 0,-4 0,-7 0,-11 -29,86 -103,147 -188,147 -105,0 -192,-92 -201,-209 -7,23 -11,48 -11,73 0,30 5,58 14,84 -13,-16 -26,-33 -39,-49 l -164,-215 h 198 c -1,9 -1,18 -1,27 0,126 90,229 201,229 88,0 162,-64 190,-154 1,2 2,5 2,7 -1,13 -2,26 -2,39 0,144 87,261 195,261 101,0 184,-104 194,-236 0,3 1,6 1,10 22,144 126,244 231,223 79,-16 137,-95 152,-195 21,116 103,201 197,198 92,-3 168,-91 184,-204 29,134 131,223 231,200 94,-21 157,-131 152,-256 4,-7 7,-14 11,-22 1,16 2,32 5,48 26,152 132,255 237,229 79,-20 135,-107 147,-213 6,-9 12,-18 17,-28 1,10 2,19 4,29 24,140 130,237 235,214 87,-19 148,-114 152,-226 5,-7 9,-14 13,-21 1,9 2,17 4,26 26,138 132,231 237,208 84,-19 142,-108 149,-214 2,-2 4,-5 5,-8 v 3 c 21,141 125,240 230,220 84,-16 144,-102 155,-206 3,-4 6,-8 9,-12 18,123 101,216 198,213 11,0 21,-2 32,-4 z m -612,-232 c 4,-7 7,-14 10,-21 33,81 110,138 199,138 58,0 110,-24 149,-63 -26,66 -75,114 -136,126 -95,18 -189,-61 -222,-180 z m -398,-11 c 3,-7 6,-14 8,-21 31,86 110,148 202,148 62,0 117,-28 157,-72 -24,68 -72,120 -133,134 -100,23 -202,-62 -233,-190 z m -404,4 c 2,-5 4,-10 6,-16 32,85 110,145 201,145 66,0 125,-32 165,-81 -22,77 -73,136 -140,151 -101,22 -203,-66 -232,-199 z m -409,-35 1,-2 c 24,100 109,174 210,174 57,0 109,-24 148,-62 -26,60 -69,104 -122,117 -104,26 -210,-75 -237,-227 z m -402,87 c -28,87 -94,150 -172,153 -94,3 -175,-81 -197,-196 4,-6 7,-13 11,-19 36,73 109,123 191,123 65,0 124,-31 163,-79 0,3 1,6 1,9 1,3 1,6 2,10 z m 8,-34 c 2,-3 4,-5 5,-8 38,65 107,109 184,109 78,0 146,-44 184,-110 -16,95 -71,172 -148,189 -96,21 -191,-58 -226,-180 z m -763,-30 c 2,-5 4,-9 6,-14 33,82 110,139 199,139 66,0 126,-32 166,-82 -23,81 -75,142 -144,155 -100,20 -198,-68 -227,-199 z m -381,9 c 37,69 108,116 188,116 67,0 126,-32 166,-83 -33,82 -97,138 -172,138 -84,0 -155,-71 -183,-171 z"
       class="fil3" /><path
       style="display:inline;fill:#fefefe;stroke:#fefefe;stroke-width:10;filter:url(#blure-6)"
       inkscape:connector-curvature="0"
       id="path15945"
       d="m 1432,10686 c 13,145 152,173 363,140 29,113 184,114 403,67 l -40,-155 c -134,40 -256,71 -361,88 55,211 202,849 295,936 35,44 78,80 128,106 111,39 342,35 531,13 -2,73 -25,131 -82,168 -239,36 -569,50 -719,-6 -60,-34 -111,-79 -154,-136 -117,-115 -304,-988 -364,-1221 z m 813,195 c 9,-51 20,-101 35,-152 53,-25 149,-41 291,-50 621,-63 1296,-88 2235,77 l -19,140 c -45,-10 -90,-20 -135,-29 l -89,161 24,-170 c -778,-129 -1338,-110 -1852,-60 -118,7 -197,20 -241,40 -23,74 -36,147 -42,221 l -59,-215 c -51,14 -100,27 -147,39 z m 2569,20 71,-134 c 190,44 383,90 546,108 l -10,19 c -92,101 -339,64 -607,7 z m 624,-25 c 170,18 307,5 375,-73 l 31,-63 -288,1059 c -49,147 -142,235 -278,263 l -25,9 c -268,13 -483,-15 -682,-30 -667,-60 -1211,-61 -1692,-32 -50,-24 -84,-70 -107,-132 16,-2 31,-4 47,-6 70,-42 79,-122 60,-219 17,91 50,160 112,188 399,-22 850,-21 1402,25 165,12 344,33 565,23 l 21,-7 c 113,-23 190,-91 231,-207 l 230,-800 z"
       class="fil3 str2" /><path
       style="display:inline;fill:#fefefe;filter:url(#blure-6)"
       inkscape:connector-curvature="0"
       id="path15947"
       d="m 2562,11113 v -31 h 113 v 98 c -17,14 -35,24 -54,31 -18,7 -37,10 -57,10 -26,0 -50,-6 -71,-17 -21,-11 -38,-27 -48,-48 -11,-21 -16,-45 -16,-71 0,-26 5,-50 16,-72 11,-22 26,-39 47,-50 20,-11 44,-16 70,-16 19,0 37,3 52,9 16,6 28,15 37,26 9,11 16,25 20,43 l -32,9 c -4,-13 -9,-24 -15,-32 -6,-8 -14,-14 -26,-18 -11,-5 -23,-7 -37,-7 -16,0 -30,2 -42,7 -12,5 -21,11 -28,19 -7,8 -13,17 -17,26 -7,16 -10,34 -10,53 0,24 4,43 12,59 8,16 20,28 36,35 16,8 32,12 50,12 15,0 30,-3 45,-9 15,-6 26,-12 33,-19 v -49 h -78 z m 293,42 34,4 c -5,20 -15,35 -30,46 -14,11 -33,16 -55,16 -28,0 -51,-9 -67,-26 -17,-17 -25,-41 -25,-73 0,-32 8,-57 25,-75 17,-18 38,-27 65,-27 26,0 47,9 63,26 16,17 25,42 25,74 0,2 0,5 0,9 h -144 c 1,21 7,37 18,48 11,11 24,17 40,17 12,0 22,-3 31,-9 9,-6 15,-16 20,-30 z m -107,-52 h 108 c -1,-16 -6,-28 -12,-36 -10,-12 -24,-19 -41,-19 -15,0 -28,5 -38,15 -10,10 -16,23 -17,40 z m 182,114 v -191 h 29 v 27 c 14,-21 35,-32 61,-32 12,0 22,2 32,6 10,4 17,10 22,16 5,7 8,15 10,24 1,6 2,17 2,32 v 118 h -33 v -116 c 0,-13 -1,-23 -4,-30 -3,-7 -7,-12 -14,-16 -7,-4 -14,-6 -23,-6 -14,0 -26,4 -36,13 -10,9 -15,25 -15,50 v 105 h -33 z m 207,-153 v -37 h 33 v 37 z m 0,153 v -117 h 33 v 117 z m 209,0 v -28 c -15,22 -35,32 -61,32 -11,0 -22,-2 -32,-6 -10,-4 -17,-10 -22,-16 -5,-7 -8,-15 -10,-24 -1,-6 -2,-16 -2,-30 v -119 h 33 v 106 c 0,17 1,28 2,34 2,9 6,15 13,20 7,5 15,7 25,7 10,0 19,-2 28,-7 9,-5 15,-12 18,-20 4,-9 5,-21 5,-37 v -103 h 33 v 191 h -29 z m 67,-57 32,-5 c 2,13 7,23 15,30 8,7 20,10 35,10 15,0 26,-3 33,-9 7,-6 11,-13 11,-21 0,-7 -3,-13 -10,-17 -4,-3 -16,-7 -33,-11 -24,-6 -41,-11 -50,-16 -9,-4 -16,-10 -21,-18 -5,-8 -7,-16 -7,-26 0,-9 2,-16 6,-24 4,-7 9,-13 16,-18 5,-4 12,-7 21,-9 9,-3 18,-4 28,-4 15,0 28,2 40,7 11,4 20,10 25,18 5,7 9,17 11,30 l -32,4 c -1,-10 -6,-18 -13,-23 -7,-6 -17,-8 -30,-8 -15,0 -26,2 -32,7 -6,5 -10,11 -10,17 0,4 1,8 4,11 3,4 7,6 13,9 3,1 13,4 29,8 23,6 39,11 48,15 9,4 16,10 22,17 5,7 8,17 8,28 0,11 -3,21 -10,31 -6,10 -16,17 -28,22 -12,5 -26,8 -41,8 -25,0 -44,-5 -57,-16 -13,-10 -22,-26 -25,-46 z"
       class="fil3" /><path
       style="display:inline;fill:#fefefe;filter:url(#blure-6)"
       inkscape:connector-curvature="0"
       id="path15949"
       d="m 3799,11079 c 3,-5 5,-9 6,-14 1,-5 2,-13 2,-24 0,-13 -2,-22 -5,-29 -3,-6 -8,-10 -15,-10 -6,0 -12,2 -17,6 -5,4 -9,11 -13,19 l -12,-5 c 7,-18 14,-32 22,-42 8,-10 17,-14 25,-14 4,0 9,1 12,3 4,2 7,5 9,9 2,4 4,9 5,15 1,6 2,13 2,21 0,4 0,10 -1,19 0,8 -1,14 -1,17 l -3,143 v 5 c 0,13 2,23 6,30 4,7 9,10 17,10 5,0 9,-2 13,-5 4,-3 8,-10 13,-19 l 9,4 c -5,18 -11,32 -17,41 -7,9 -14,13 -23,13 -10,0 -18,-5 -23,-15 -5,-10 -8,-24 -8,-44 v -2 l 1,-77 -86,133 h -38 l 121,-188 z"
       class="fil3" /><path
       style="display:inline;fill:#fefefe;filter:url(#blure-6)"
       inkscape:connector-curvature="0"
       id="path15951"
       d="m 3916,11150 c 0,-14 3,-27 9,-41 6,-14 14,-27 25,-40 13,-15 28,-27 44,-36 16,-9 32,-13 48,-13 21,0 38,6 50,18 12,12 18,28 18,48 0,15 -3,30 -11,45 -7,16 -17,30 -29,43 -13,13 -27,23 -42,31 -15,7 -30,11 -46,11 -20,0 -36,-6 -48,-18 -12,-12 -18,-28 -18,-48 z m 122,-119 c -10,0 -20,4 -30,11 -10,8 -20,18 -28,32 -8,13 -15,27 -20,43 -5,16 -8,30 -8,43 0,14 3,24 9,32 6,8 15,12 26,12 10,0 19,-3 29,-10 10,-7 18,-16 27,-28 9,-14 16,-29 22,-46 6,-17 9,-32 9,-45 0,-14 -3,-25 -9,-33 -6,-7 -15,-11 -26,-11 z"
       class="fil3" /><path
       style="display:inline;fill:#fefefe;filter:url(#blure-6)"
       inkscape:connector-curvature="0"
       id="path15953"
       d="m 4386,11150 c 0,-14 3,-27 9,-41 6,-14 14,-27 25,-40 13,-15 28,-27 44,-36 16,-9 32,-13 48,-13 21,0 38,6 50,18 12,12 18,28 18,48 0,15 -3,30 -11,45 -7,16 -17,30 -29,43 -13,13 -27,23 -42,31 -15,7 -30,11 -46,11 -20,0 -36,-6 -48,-18 -12,-12 -18,-28 -18,-48 z m 122,-119 c -10,0 -20,4 -31,11 -10,8 -20,18 -28,32 -8,13 -15,27 -20,43 -5,16 -8,30 -8,43 0,14 3,24 9,32 6,8 15,12 26,12 10,0 19,-3 29,-10 10,-7 18,-16 27,-28 9,-14 16,-29 22,-46 6,-17 9,-32 9,-45 0,-14 -3,-25 -9,-33 -6,-7 -15,-11 -26,-11 z"
       class="fil3" /><path
       style="display:inline;fill:#fefefe;filter:url(#blure-6)"
       inkscape:connector-curvature="0"
       id="path15955"
       d="m 4233,11138 c 22,-26 39,-49 50,-67 11,-19 18,-35 20,-50 0,-2 1,-5 1,-10 3,-23 10,-34 21,-34 5,0 10,2 13,6 4,4 5,9 5,15 0,12 -9,31 -28,58 -19,26 -46,59 -83,98 -4,33 -10,58 -18,77 -8,18 -16,28 -26,28 -4,0 -8,-2 -10,-5 -2,-4 -4,-9 -4,-15 0,-12 4,-25 12,-41 8,-16 19,-31 34,-47 v -12 c 0,-43 -3,-75 -8,-93 -5,-19 -13,-28 -25,-28 -5,0 -10,2 -14,7 -4,5 -8,12 -12,22 l -11,-1 c 5,-22 12,-38 20,-50 8,-12 17,-17 27,-17 12,0 22,9 28,27 6,18 9,45 9,82 0,10 0,27 -1,49 v 2 z"
       class="fil3" /><path
       style="display:inline;fill:#fefefe;stroke:#fefefe;stroke-width:20;filter:url(#blure-6)"
       inkscape:connector-curvature="0"
       id="path15957"
       d="m 4601,11308 5,-13 c 11,4 20,7 28,9 8,2 16,3 23,3 12,0 21,-2 28,-7 7,-4 10,-11 10,-18 0,-14 -13,-41 -38,-80 -8,-12 -14,-21 -18,-28 -9,-13 -15,-24 -18,-32 -3,-8 -5,-16 -5,-24 0,-21 8,-39 25,-53 17,-15 37,-22 61,-22 25,0 47,8 66,23 19,15 29,31 29,47 0,8 -2,14 -6,19 -4,4 -10,7 -18,7 -12,0 -23,-11 -33,-33 -1,-3 -2,-5 -3,-6 -6,-14 -13,-24 -20,-30 -7,-6 -15,-9 -24,-9 -10,0 -18,3 -24,10 -5,7 -8,16 -8,29 0,16 11,40 34,73 7,9 11,17 15,22 14,21 23,37 27,47 4,10 7,20 7,28 0,17 -6,32 -19,44 -13,12 -29,18 -49,18 -12,0 -24,-2 -38,-6 -14,-4 -26,-9 -37,-16 z"
       class="fil3 str3" /><path
       style="display:inline;fill:#fefefe;filter:url(#blure-6)"
       inkscape:connector-curvature="0"
       id="path15959"
       d="m 3031,11329 h 165 c 15,0 24,0 28,-1 4,-1 7,-2 7,-3 0,-1 2,-2 6,-3 3,-1 12,-1 27,-1 5,0 9,2 11,5 3,3 4,8 4,13 0,2 0,4 -1,7 -1,2 -2,6 -4,9 -2,4 -3,7 -4,10 -4,11 -7,22 -8,33 -1,11 -2,18 -4,23 -1,5 -5,7 -11,7 -5,0 -8,-1 -10,-4 -2,-3 -3,-8 -5,-15 -5,-18 -11,-31 -17,-40 -7,-9 -14,-15 -21,-17 -7,-3 -16,-4 -25,-4 h -12 -17 v 115 c 10,10 25,18 45,25 20,7 38,11 55,11 3,0 9,0 19,-1 11,0 19,2 23,6 4,4 7,12 7,24 v 89 c 0,8 -1,14 -2,19 -1,4 -4,8 -8,10 -4,2 -11,4 -20,4 h -229 v -19 h 38 v -282 h -38 v -19 z m 110,301 h 57 c 8,0 13,-2 16,-6 3,-4 4,-12 4,-25 v -52 c 0,-7 -1,-12 -3,-15 -2,-3 -8,-7 -17,-12 -16,-9 -28,-16 -35,-20 -7,-5 -15,-11 -22,-20 z m 327,19 h -119 c -11,0 -16,-6 -16,-18 v -60 c 0,-33 0,-57 1,-74 0,-17 1,-29 2,-38 1,-9 3,-15 5,-18 2,-3 6,-5 10,-5 1,0 4,0 7,0 3,0 5,0 7,0 10,0 17,0 21,-1 h 5 c 4,1 6,3 6,7 0,2 -1,7 -2,14 -2,7 -3,17 -4,31 -1,11 -1,26 -1,44 42,2 74,12 94,27 24,19 36,43 36,72 0,8 -2,13 -6,15 -4,2 -11,4 -20,4 h -8 c -1,0 -4,0 -8,0 -1,0 -3,0 -5,0 -2,0 -4,0 -5,0 z m 71,-122 c 0,-28 1,-48 2,-61 1,-13 3,-21 5,-25 2,-4 6,-5 11,-5 2,0 4,0 6,0 2,0 5,0 7,0 5,0 12,0 21,-1 h 5 c 4,1 6,3 6,7 0,3 -1,10 -2,19 -2,10 -3,20 -4,29 -1,9 -2,21 -2,34 0,40 2,77 7,111 0,5 -1,9 -4,11 -3,2 -9,3 -19,3 h -22 c -6,0 -10,-2 -12,-6 -2,-4 -3,-13 -4,-28 -2,-33 -2,-63 -2,-88 z m -149,107 h 53 8 c 0,-3 0,-8 0,-15 0,-8 -1,-17 -4,-26 -3,-9 -9,-18 -18,-25 -9,-8 -22,-13 -39,-15 -1,5 -1,13 -1,24 0,24 0,43 1,57 z m 492,-111 -24,-4 c 4,-10 6,-19 6,-26 0,-17 -5,-28 -16,-33 -11,-5 -24,-7 -38,-7 h -8 c 0,8 0,16 0,25 0,9 0,15 0,18 -1,13 -1,24 -1,31 0,15 0,36 1,63 1,26 1,43 2,49 0,5 -1,8 -3,10 -2,2 -7,3 -15,3 h -27 c -5,0 -8,-1 -9,-4 -2,-2 -3,-7 -3,-13 0,-6 -1,-18 -1,-35 0,-6 0,-11 0,-16 0,-5 0,-9 0,-13 v -20 c 0,-17 0,-34 1,-52 0,-1 0,-6 1,-15 0,-9 1,-19 1,-32 h -8 c -36,0 -54,14 -54,41 0,4 2,13 6,26 l -24,4 c -6,-19 -15,-37 -27,-54 -5,-8 -8,-15 -8,-21 0,-5 1,-8 4,-12 3,-3 6,-5 9,-5 3,0 12,1 27,3 13,1 32,2 59,2 h 86 c 27,0 47,-1 60,-2 15,-2 24,-3 27,-3 3,0 7,2 9,5 3,3 4,7 4,12 0,6 -3,13 -8,21 -7,10 -12,19 -16,26 -4,7 -7,17 -11,29 z m 117,3 79,-46 c 1,-17 2,-27 2,-32 0,-4 2,-7 3,-9 2,-2 5,-3 10,-3 h 40 c 4,0 6,2 6,7 0,2 -1,8 -2,19 -4,21 -6,42 -6,63 0,37 2,74 7,110 0,5 -1,8 -3,10 -2,2 -7,3 -15,3 h -27 c -4,0 -8,-2 -10,-5 -3,-3 -5,-10 -6,-21 -2,-11 -2,-26 -2,-47 0,-25 1,-52 2,-78 l -78,46 c 1,32 3,62 7,92 0,5 -1,8 -3,10 -2,2 -7,3 -15,3 h -27 c -4,0 -7,-1 -10,-3 -2,-2 -3,-7 -4,-14 -1,-12 -1,-22 -2,-29 -1,-22 -2,-47 -2,-75 0,-20 0,-37 1,-50 1,-13 2,-23 3,-28 1,-6 3,-9 5,-11 2,-1 4,-2 7,-2 h 41 c 4,0 6,2 6,7 0,1 -1,8 -2,19 -4,23 -6,44 -6,63 z"
       class="fil3" /></g><g
     id="_462437232"><path
       class="fil2 str4"
       d="m 5223,9434 c 362,372 555,815 504,1363"
       id="path15961"
       inkscape:connector-curvature="0"
       style="fill:none;stroke:#fefefe;stroke-width:7.61999989;filter:url(#blure-6)" /></g><g
     id="_460570480"><path
       class="fil2 str4"
       d="m 2032,9403 c -362,372 -555,815 -504,1363"
       id="path16936"
       inkscape:connector-curvature="0"
       style="fill:none;stroke:#fefefe;stroke-width:7.61999989;filter:url(#blure-6)" /></g><g
     id="_458902512"><g
       id="g17913"
       style="display:inline"><path
         class="fil0"
         d="m 7094,10500 h -139 v 0 l -4,-170 -13,-167 -21,-165 -29,-162 -37,-160 -45,-156 -52,-153 -60,-150 -67,-146 -74,-142 -80,-138 -87,-134 -93,-130 -99,-125 -105,-120 -110,-115 -116,-109 -121,-104 -126,-98 -131,-92 -135,-86 -139,-80 -144,-73 -147,-66 -151,-59 -155,-52 -158,-45 -161,-37 -164,-29 -166,-21 -169,-13 -171,-4 v -138 l 178,4 176,13 173,22 171,30 168,39 164,47 161,54 157,62 154,69 150,76 145,83 141,90 136,96 131,102 126,108 121,114 115,120 109,125 103,130 97,135 90,140 84,144 77,148 70,152 62,156 55,160 47,163 39,166 31,169 22,172 13,174 5,177 v 0 z m -3469,3441 v -138 0 l 171,-4 169,-13 166,-21 164,-29 161,-37 158,-45 155,-52 151,-59 147,-66 144,-73 139,-80 135,-86 131,-92 126,-98 121,-104 116,-109 110,-115 105,-120 99,-125 93,-130 87,-134 80,-138 74,-142 67,-146 60,-150 52,-153 45,-156 37,-160 29,-162 21,-165 13,-167 4,-170 h 139 l -5,177 -13,174 -22,172 -31,169 -39,166 -47,163 -55,160 -62,156 -70,152 -77,148 -84,144 -90,140 -97,135 -103,130 -109,125 -115,120 -121,114 -126,108 -131,102 -136,96 -141,90 -145,83 -150,76 -154,69 -157,62 -161,54 -164,47 -168,39 -171,30 -173,22 -176,13 -178,4 v 0 z M 156,10500 h 139 v 0 l 4,170 13,167 21,165 29,162 37,160 45,156 52,153 60,150 67,146 74,142 80,138 87,134 93,130 99,125 105,120 110,115 116,109 121,104 126,98 131,92 135,86 139,80 144,73 147,66 151,59 155,52 158,45 161,37 164,29 166,21 169,13 171,4 v 138 l -178,-4 -176,-13 -173,-22 -171,-30 -168,-39 -164,-47 -161,-54 -157,-62 -154,-69 -150,-76 -145,-83 -141,-90 -136,-96 -131,-102 -126,-108 -121,-114 -115,-120 -109,-125 -103,-130 -97,-135 -90,-140 -84,-144 -77,-148 -70,-152 -62,-156 -55,-160 -47,-163 -39,-166 -31,-169 -22,-172 -13,-174 -5,-177 v 0 z M 3625,7059 v 138 0 l -171,4 -169,13 -166,21 -164,29 -161,37 -158,45 -155,52 -151,59 -147,66 -144,73 -139,80 -135,86 -131,92 -126,98 -121,104 -116,109 -110,115 -105,120 -99,125 -93,130 -87,134 -80,138 -74,142 -67,146 -60,150 -52,153 -45,156 -37,160 -29,162 -21,165 -13,167 -4,170 H 156 l 5,-177 13,-174 22,-172 31,-169 39,-166 47,-163 55,-160 62,-156 70,-152 77,-148 84,-144 90,-140 97,-135 103,-130 109,-125 115,-120 121,-114 126,-108 131,-102 136,-96 141,-90 145,-83 150,-76 154,-69 157,-62 161,-54 164,-47 168,-39 171,-30 173,-22 176,-13 178,-4 v 0 z"
         id="path17911"
         inkscape:connector-curvature="0"
         style="fill:#fefefe;fill-rule:nonzero;filter:url(#blure-6)" /></g><g
       id="g17917"><path
         class="fil1"
         d="m 6282,10500 h -117 v 0 l -3,-129 -10,-128 -16,-126 -22,-124 -28,-122 -34,-119 -40,-117 -46,-114 -51,-112 -56,-109 -61,-106 -66,-102 -71,-99 -76,-95 -80,-92 -84,-88 -88,-84 -92,-79 -96,-75 -100,-70 -103,-66 -106,-61 -110,-56 -112,-51 -115,-45 -118,-40 -120,-34 -123,-28 -125,-22 -127,-16 -129,-10 -130,-3 v -116 l 136,3 135,10 133,17 131,23 128,30 126,36 123,42 121,47 118,53 115,58 111,64 108,69 104,74 100,78 96,83 92,87 88,92 84,96 79,100 74,103 69,107 64,110 59,114 53,117 48,120 42,122 36,125 30,127 23,130 17,132 10,134 3,135 v 0 z m -2657,2635 v -116 0 l 130,-3 129,-10 127,-16 125,-22 123,-28 120,-34 118,-40 115,-45 112,-51 110,-56 106,-61 103,-66 100,-70 96,-75 92,-79 88,-84 84,-88 80,-92 76,-95 71,-99 66,-102 61,-106 56,-109 51,-112 46,-114 40,-117 34,-119 28,-122 22,-124 16,-126 10,-128 3,-129 h 117 l -3,135 -10,134 -17,132 -23,130 -30,127 -36,125 -42,122 -48,120 -53,117 -59,114 -64,110 -69,107 -74,103 -79,100 -84,96 -88,92 -92,87 -96,83 -100,78 -104,74 -108,69 -111,64 -115,58 -118,53 -121,47 -123,42 -126,36 -128,30 -131,23 -133,17 -135,10 -136,3 v 0 z M 968,10500 h 117 v 0 l 3,129 10,128 16,126 22,124 28,122 34,119 40,117 46,114 51,112 56,109 61,106 66,102 71,99 76,95 80,92 84,88 88,84 92,79 96,75 100,70 103,66 106,61 110,56 112,51 115,45 118,40 120,34 123,28 125,22 127,16 129,10 130,3 v 116 l -136,-3 -135,-10 -133,-17 -131,-23 -128,-30 -126,-36 -123,-42 -121,-47 -118,-53 -115,-58 -111,-64 -108,-69 -104,-74 -100,-78 -96,-83 -92,-87 -88,-92 -84,-96 -79,-100 -74,-103 -69,-107 -64,-110 -59,-114 -53,-117 -48,-120 -42,-122 -36,-125 -30,-127 -23,-130 -17,-132 -10,-134 -3,-135 v 0 z M 3625,7865 v 116 0 l -130,3 -129,10 -127,16 -125,22 -123,28 -120,34 -118,40 -115,45 -112,51 -110,56 -106,61 -103,66 -100,70 -96,75 -92,79 -88,84 -84,88 -80,92 -76,95 -71,99 -66,102 -61,106 -56,109 -51,112 -46,114 -40,117 -34,119 -28,122 -22,124 -16,126 -10,128 -3,129 H 970 l 3,-135 10,-134 17,-132 23,-130 30,-127 36,-125 42,-122 48,-120 53,-117 59,-114 64,-110 69,-107 74,-103 79,-100 84,-96 88,-92 92,-87 96,-83 100,-78 104,-74 108,-69 111,-64 115,-58 118,-53 121,-47 123,-42 126,-36 128,-30 131,-23 133,-17 135,-10 136,-3 v 0 z"
         id="path17915"
         inkscape:connector-curvature="0"
         style="display:inline;fill:#fefefe;fill-rule:nonzero;filter:url(#blure-6)" /></g><g
       id="g18935"><path
         class="fil2 str4"
         d="m 5223,9434 c 362,372 555,815 504,1363"
         id="path17961"
         inkscape:connector-curvature="0"
         style="fill:none;stroke:#fefefe;stroke-width:7.61999989;filter:url(#blure-6)" /></g><g
       id="g19911"><path
         class="fil2 str4"
         d="m 2032,9403 c -362,372 -555,815 -504,1363"
         id="path18937"
         inkscape:connector-curvature="0"
         style="fill:none;stroke:#fefefe;stroke-width:7.61999989;filter:url(#blure-6)" /></g></g></g><g
   id="g319"
   transform="translate(-13122.311,-6365.1239)"><g
     style="clip-rule:evenodd;display:inline;fill-rule:evenodd;filter:url(#blure-4);image-rendering:optimizeQuality;shape-rendering:geometricPrecision;text-rendering:geometricPrecision"
     id="g20173"
     transform="translate(28041.949,-321.88316)"><ellipse
       style="fill:#ffffff;stroke-width:31.09503555"
       id="path19962"
       ry="232.80533"
       rx="108.12884"
       cy="9044.4365"
       cx="-6207.3921"
       transform="matrix(0.77516361,-0.63176054,0.67906952,0.73407397,0,0)" /><ellipse
       style="clip-rule:evenodd;fill:#ffffff;fill-rule:evenodd;stroke-width:32.04719162;image-rendering:optimizeQuality;shape-rendering:geometricPrecision;text-rendering:geometricPrecision"
       id="path19962-7"
       ry="239.93796"
       rx="111.438"
       cy="8471.8838"
       cx="-6479.3564"
       transform="matrix(0.73626925,-0.67668869,0.72048977,0.69346557,0,0)" /><ellipse
       style="clip-rule:evenodd;fill:#ffffff;fill-rule:evenodd;stroke-width:32.04719162;image-rendering:optimizeQuality;shape-rendering:geometricPrecision;text-rendering:geometricPrecision"
       id="path19962-7-3"
       ry="239.93794"
       rx="111.43802"
       cy="8760.3643"
       cx="-5699.731"
       transform="matrix(0.7834295,-0.62148066,0.66827213,0.7439169,0,0)" /><ellipse
       style="clip-rule:evenodd;fill:#ffffff;fill-rule:evenodd;stroke-width:33.92407608;image-rendering:optimizeQuality;shape-rendering:geometricPrecision;text-rendering:geometricPrecision"
       id="path19962-7-3-5"
       ry="221.82892"
       rx="135.06734"
       cy="10368.591"
       cx="-1952.6248"
       transform="matrix(0.99982919,-0.01848238,0.33331106,0.94281692,0,0)" /><ellipse
       style="clip-rule:evenodd;fill:#ffffff;fill-rule:evenodd;stroke-width:35.16305923;image-rendering:optimizeQuality;shape-rendering:geometricPrecision;text-rendering:geometricPrecision"
       id="path19962-7-3-5-6"
       ry="236.87737"
       rx="135.89462"
       cy="9206.6719"
       cx="1131.3463"
       transform="matrix(0.96246199,0.2714165,0.06415754,0.99793978,0,0)" /><ellipse
       style="clip-rule:evenodd;fill:#ffffff;fill-rule:evenodd;stroke-width:34.1150856;image-rendering:optimizeQuality;shape-rendering:geometricPrecision;text-rendering:geometricPrecision"
       id="path19962-7-3-5-6-7"
       ry="223.85532"
       rx="135.35614"
       cy="8438.7637"
       cx="2343.675"
       transform="matrix(0.93428017,0.35653972,-0.03622701,0.99934359,0,0)" /><ellipse
       style="clip-rule:evenodd;fill:#ffffff;fill-rule:evenodd;stroke-width:35.8842926;image-rendering:optimizeQuality;shape-rendering:geometricPrecision;text-rendering:geometricPrecision"
       id="path19962-7-3-5-6-7-0"
       ry="234.89288"
       rx="142.72214"
       cy="-1181.614"
       cx="9847.3223"
       transform="matrix(0.11932587,0.99285514,-0.89998906,0.43591248,0,0)" /><ellipse
       style="clip-rule:evenodd;fill:#ffffff;fill-rule:evenodd;stroke-width:35.88428879;image-rendering:optimizeQuality;shape-rendering:geometricPrecision;text-rendering:geometricPrecision"
       id="path19962-7-3-5-6-7-0-3"
       ry="234.89285"
       rx="142.72212"
       cy="-5459.4971"
       cx="10163.223"
       transform="matrix(-0.33100996,0.94362726,-0.9999824,-0.0059325,0,0)" /><ellipse
       style="clip-rule:evenodd;fill:#ffffff;fill-rule:evenodd;stroke-width:36.6198349;image-rendering:optimizeQuality;shape-rendering:geometricPrecision;text-rendering:geometricPrecision"
       id="path19962-7-3-5-6-7-0-3-1"
       ry="242.84557"
       rx="143.76562"
       cy="-6772.1636"
       cx="10144.674"
       transform="matrix(-0.46930081,0.88303836,-0.99043805,-0.13795821,0,0)" /><ellipse
       style="clip-rule:evenodd;fill:#ffffff;fill-rule:evenodd;stroke-width:36.6198349;image-rendering:optimizeQuality;shape-rendering:geometricPrecision;text-rendering:geometricPrecision"
       id="path19962-7-3-5-6-7-0-3-1-9"
       ry="242.84557"
       rx="143.76562"
       cy="-2724.3967"
       cx="10965.951"
       transform="matrix(-0.07517852,0.99717009,-0.96246604,0.27140214,0,0)" /><ellipse
       style="clip-rule:evenodd;fill:#ffffff;fill-rule:evenodd;stroke-width:36.6198349;image-rendering:optimizeQuality;shape-rendering:geometricPrecision;text-rendering:geometricPrecision"
       id="path19962-7-3-5-6-7-0-3-1-9-9"
       ry="242.84557"
       rx="143.76562"
       cy="-649.68726"
       cx="10930.613"
       transform="matrix(0.10641624,0.99432167,-0.89750509,0.4410041,0,0)" /></g><g
     style="clip-rule:evenodd;display:inline;fill-rule:evenodd;filter:url(#filter1458);image-rendering:optimizeQuality;shape-rendering:geometricPrecision;text-rendering:geometricPrecision"
     id="g1278"
     transform="translate(28041.949,-321.88316)"><ellipse
       style="fill:#ffffff;stroke-width:26.45833206"
       id="path1115"
       cx="10706.749"
       cy="5358.1362"
       rx="238.24301"
       ry="113.1609"
       transform="rotate(35.887327)" /><ellipse
       style="clip-rule:evenodd;fill:#ffffff;fill-rule:evenodd;stroke-width:26.45833206;image-rendering:optimizeQuality;shape-rendering:geometricPrecision;text-rendering:geometricPrecision"
       id="path1115-6"
       cx="9022.2969"
       cy="7276.3389"
       rx="238.24301"
       ry="113.16089"
       transform="rotate(22.976211)" /><ellipse
       style="clip-rule:evenodd;fill:#ffffff;fill-rule:evenodd;stroke-width:26.45832825;image-rendering:optimizeQuality;shape-rendering:geometricPrecision;text-rendering:geometricPrecision"
       id="path1115-6-5"
       cx="5228.3394"
       cy="9949.999"
       rx="238.24298"
       ry="113.16088"
       transform="rotate(-0.45363338)" /><ellipse
       style="clip-rule:evenodd;fill:#ffffff;fill-rule:evenodd;stroke-width:26.45832634;image-rendering:optimizeQuality;shape-rendering:geometricPrecision;text-rendering:geometricPrecision"
       id="path1115-6-5-7"
       cx="6294.4028"
       cy="8963.1201"
       rx="238.24297"
       ry="113.16088"
       transform="rotate(6.8810117)" /><ellipse
       style="clip-rule:evenodd;fill:#ffffff;fill-rule:evenodd;stroke-width:26.45832634;image-rendering:optimizeQuality;shape-rendering:geometricPrecision;text-rendering:geometricPrecision"
       id="path1115-6-5-7-2"
       cx="9333.6318"
       cy="4951.9277"
       rx="238.24297"
       ry="113.16088"
       transform="rotate(33.613258)" /><ellipse
       style="clip-rule:evenodd;fill:#ffffff;fill-rule:evenodd;stroke-width:26.45832825;image-rendering:optimizeQuality;shape-rendering:geometricPrecision;text-rendering:geometricPrecision"
       id="path1115-6-5-7-2-4"
       cx="7997.5332"
       cy="-7037.1235"
       rx="238.24298"
       ry="113.16089"
       transform="rotate(101.4779)" /><ellipse
       style="clip-rule:evenodd;fill:#ffffff;fill-rule:evenodd;stroke-width:29.86405754;image-rendering:optimizeQuality;shape-rendering:geometricPrecision;text-rendering:geometricPrecision"
       id="path1115-6-5-7-2-4-9"
       cx="8075.5957"
       cy="-7794.6777"
       rx="258.19775"
       ry="133.02608"
       transform="matrix(-0.25028808,0.96817141,-0.97622429,-0.21676285,0,0)" /><ellipse
       style="clip-rule:evenodd;fill:#ffffff;fill-rule:evenodd;stroke-width:27.25201416;image-rendering:optimizeQuality;shape-rendering:geometricPrecision;text-rendering:geometricPrecision"
       id="path1115-6-5-7-2-4-9-6"
       cx="6393.7812"
       cy="-9703.3291"
       rx="234.18985"
       ry="122.12955"
       transform="matrix(-0.46775143,0.88386006,-0.9021468,-0.4314292,0,0)" /><ellipse
       style="clip-rule:evenodd;fill:#ffffff;fill-rule:evenodd;stroke-width:27.25201416;image-rendering:optimizeQuality;shape-rendering:geometricPrecision;text-rendering:geometricPrecision"
       id="path1115-6-5-7-2-4-9-6-2"
       cx="4275.3311"
       cy="-11033.957"
       rx="234.18982"
       ry="122.12956"
       transform="matrix(-0.65117371,0.75892872,-0.78477616,-0.61977929,0,0)" /><ellipse
       style="clip-rule:evenodd;fill:#ffffff;fill-rule:evenodd;stroke-width:28.40506744;image-rendering:optimizeQuality;shape-rendering:geometricPrecision;text-rendering:geometricPrecision"
       id="path1115-6-5-7-2-4-9-6-2-5"
       cx="3308.0327"
       cy="-11606.706"
       rx="244.13997"
       ry="127.27537"
       transform="matrix(-0.73396771,0.67918437,-0.72113875,-0.69279066,0,0)" /><ellipse
       style="clip-rule:evenodd;fill:#ffffff;fill-rule:evenodd;stroke-width:28.40506554;image-rendering:optimizeQuality;shape-rendering:geometricPrecision;text-rendering:geometricPrecision"
       id="path1115-6-5-7-2-4-9-6-2-5-5"
       cx="3058.0286"
       cy="-11937.36"
       rx="244.13995"
       ry="127.27537"
       transform="matrix(-0.76024744,0.64963362,-0.69318332,-0.72076132,0,0)" /></g></g></svg>